<svg width="1440" height="622" viewBox="0 0 1440 622" fill="none" xmlns="http://www.w3.org/2000/svg">
<path d="M253.362 2.17258L377.903 149.917M377.903 149.917L758.53 81.0284L1245.02 531.591L1143.44 613.085L0 197.407M377.903 149.917L379.849 409.057L929.384 545.076L1440 58.4563M0 85.4255L169.686 55.818L730.508 202.976L1116.19 24.4515L1440 174.835M1225.17 1L85.6216 545.076L0 440.13M164.627 621L779.157 584.943M779.157 584.943L1123.98 138.191L1438.05 386.191M779.157 584.943L789.665 620.121M1438.05 317.596L1289.38 384.433L1437.66 595.203" stroke="white" stroke-opacity="0.1"/>
</svg>
