<svg width="54" height="54" viewBox="0 0 54 54" fill="none" xmlns="http://www.w3.org/2000/svg">
<path d="M27.0004 18.5625C28.3631 18.5625 29.5882 17.8056 30.1974 16.5864L30.286 16.4084L28.7765 15.6532L28.6879 15.8321C28.3664 16.475 27.7201 16.875 27.0004 16.875C26.2807 16.875 25.6344 16.475 25.3129 15.8321L25.2243 15.6541L23.7148 16.4092L23.8034 16.5873C24.4126 17.8056 25.6377 18.5625 27.0004 18.5625Z" fill="white"/>
<path d="M46.4062 36.2812H43.0312V31.3799C43.0312 28.879 41.9226 26.5343 39.9887 24.9472C38.9855 24.1237 37.784 23.5398 36.5124 23.2571L31.0897 22.0733L30.8163 20.7495C32.3662 19.683 33.4454 17.9854 33.6909 16.0312H33.75C35.6113 16.0312 37.125 14.5176 37.125 12.6562C37.125 11.9753 36.9191 11.3434 36.5707 10.8127C36.8457 9.85669 37.125 8.64506 37.125 7.59375C37.125 5.88347 35.8459 4.46597 34.1938 4.24744L33.7652 3.67706C32.4346 1.90266 30.3168 0.84375 28.0994 0.84375C27.27 0.84375 26.4558 0.987188 25.6787 1.27069L20.1277 3.28894C18.182 3.996 16.875 5.86238 16.875 7.93294C16.875 8.33625 16.9248 8.73872 17.026 9.14541L17.4597 10.7612C17.0918 11.302 16.875 11.9543 16.875 12.6562C16.875 14.5176 18.3887 16.0312 20.25 16.0312H20.3082C20.5571 18.0141 21.6641 19.7336 23.2512 20.7968L22.966 21.9375H17.0741C16.5223 21.9375 15.9697 21.8076 15.4761 21.5603C14.2568 20.9512 13.5 19.726 13.5 18.3634V15.5377L13.9522 15.0862C14.7487 14.2889 15.1875 13.2292 15.1875 12.1019V10.125C15.1875 9.02644 14.4796 8.09831 13.5 7.749V6.75C13.5 4.42378 11.6075 2.53125 9.28125 2.53125C6.95503 2.53125 5.0625 4.42378 5.0625 6.75V11.7526C5.0625 12.771 5.36203 13.7438 5.91975 14.5716C5.41012 14.8627 5.0625 15.4043 5.0625 16.0312V18.6401C5.0625 22.5728 7.01578 26.2229 10.2878 28.404C11.9931 29.5414 13.9455 30.2062 16.0312 30.3472V34.2132C15.6541 34.868 15.3385 35.5598 15.082 36.2821H7.59375V41.3446H10.9688V53.1571H43.0312V41.3438H46.4062V36.2812ZM38.918 26.2524C40.4595 27.5172 41.3438 29.3861 41.3438 31.3799V36.2812H38.918C38.0793 33.9196 36.5622 31.8836 34.5971 30.4012L35.316 24.7236L36.1488 24.9058C37.1604 25.1302 38.1181 25.596 38.918 26.2524ZM20.9866 29.3667L20.3707 23.8224L22.2919 28.7618C21.8447 28.9415 21.4068 29.1389 20.9866 29.3667ZM27.0346 27.1266L28.3787 27.9222C27.9256 27.8733 27.4666 27.8438 27 27.8438C26.5849 27.8438 26.1748 27.8665 25.7698 27.9062L27.0346 27.1266ZM33.6606 24.3624L33.0261 29.3726C32.6548 29.171 32.2726 28.9887 31.8803 28.8242L33.5433 24.3363L33.6606 24.3624ZM31.8786 23.9735L30.6433 27.3088L28.3551 25.9715L30.6433 23.7035L31.8786 23.9735ZM27.9636 10.9688H26.0364C25.9597 10.6726 25.8424 10.395 25.693 10.1368C26.8178 9.71663 27.8362 9.03909 28.6512 8.15484C28.8858 8.44678 29.1499 8.71003 29.4199 8.96737C28.7069 9.41963 28.1812 10.1309 27.9636 10.9688ZM21.0938 11.8125C21.0938 10.8818 21.8506 10.125 22.7812 10.125C23.7119 10.125 24.4688 10.8818 24.4688 11.8125C24.4688 12.7432 23.7119 13.5 22.7812 13.5C21.8506 13.5 21.0938 12.7432 21.0938 11.8125ZM31.2188 10.125C32.1494 10.125 32.9062 10.8818 32.9062 11.8125C32.9062 12.7432 32.1494 13.5 31.2188 13.5C30.2881 13.5 29.5312 12.7432 29.5312 11.8125C29.5312 10.8818 30.2881 10.125 31.2188 10.125ZM33.75 14.3438V14.0214C34.2689 13.4283 34.5938 12.6613 34.5938 11.8125C34.5938 11.5914 34.5693 11.3771 34.5288 11.1679C35.0662 11.4505 35.4375 12.0083 35.4375 12.6562C35.4375 13.5869 34.6807 14.3438 33.75 14.3438ZM20.7048 4.8735L26.2558 2.85525C26.8473 2.64094 27.4674 2.53125 28.0994 2.53125C29.7886 2.53125 31.4027 3.33787 32.416 4.69041L33.3281 5.90625H33.75C34.6807 5.90625 35.4375 6.66309 35.4375 7.59375C35.4375 8.21559 35.3042 8.94881 35.1506 9.59428C34.722 9.39769 34.2512 9.28125 33.75 9.28125H33.4277C32.8894 8.81128 32.2068 8.51344 31.4508 8.46112C30.7176 7.95909 30.0915 7.33472 29.5971 6.59391L28.6875 5.22872L27.9855 6.28172C27.1249 7.57266 25.7791 8.47462 24.2671 8.79694C23.8174 8.57419 23.317 8.4375 22.7812 8.4375C21.9333 8.4375 21.1663 8.76234 20.5723 9.28125H20.25C19.7648 9.28125 19.3058 9.38841 18.8882 9.57403L18.6595 8.72269C18.5954 8.46366 18.5625 8.19872 18.5625 7.93294C18.5625 6.56944 19.424 5.34009 20.7048 4.8735ZM18.5625 12.6562C18.5625 12.0083 18.9338 11.4505 19.4712 11.1679C19.4307 11.3771 19.4062 11.5914 19.4062 11.8125C19.4062 12.6605 19.7311 13.4274 20.25 14.0214V14.3438C19.3193 14.3438 18.5625 13.5869 18.5625 12.6562ZM21.9375 15.1875V15.0677C22.2092 15.1386 22.4885 15.1875 22.7812 15.1875C24.3489 15.1875 25.6593 14.1083 26.0364 12.6562H27.9636C28.3407 14.1083 29.6511 15.1875 31.2188 15.1875C31.5115 15.1875 31.7908 15.1386 32.0625 15.0677V15.1875C32.0625 17.9795 29.792 20.25 27 20.25C24.208 20.25 21.9375 17.9795 21.9375 15.1875ZM27 21.9375C27.7923 21.9375 28.55 21.7932 29.257 21.5409L29.457 22.5062L27 24.9632L24.5599 22.5222L24.8003 21.5612C25.4905 21.8008 26.2288 21.9375 27 21.9375ZM23.2757 23.625L25.6483 25.9976L23.5339 27.3004L22.1046 23.625H23.2757ZM6.75 6.75C6.75 5.35444 7.88569 4.21875 9.28125 4.21875C10.6768 4.21875 11.8125 5.35444 11.8125 6.75V7.749C10.8329 8.09831 10.125 9.02644 10.125 10.125V10.9688H11.8125V10.125C11.8125 9.65925 12.1913 9.28125 12.6562 9.28125C13.1212 9.28125 13.5 9.65925 13.5 10.125V12.1019C13.5 12.7786 13.2367 13.4148 12.7592 13.8923L12.3069 14.3438H7.94306L7.73887 14.1396C7.101 13.5017 6.75 12.6537 6.75 11.7526V6.75ZM17.6411 28.6875H16.7974C14.807 28.6875 12.8798 28.1045 11.2244 27C8.42231 25.1328 6.75 22.0075 6.75 18.6401V16.0312H11.8125V18.3634C11.8125 20.3698 12.9271 22.1729 14.7218 23.0698C15.4482 23.4326 16.2616 23.625 17.0741 23.625H18.6511L19.4037 30.4012C18.7971 30.8585 18.2334 31.3681 17.7188 31.925V29.5312L17.6411 28.6875ZM27 29.5312C33.048 29.5312 37.9688 34.452 37.9688 40.5C37.9688 46.548 33.048 51.4688 27 51.4688C20.952 51.4688 16.0312 46.548 16.0312 40.5C16.0312 34.452 20.952 29.5312 27 29.5312ZM9.28125 37.9688H14.5986C14.4863 38.518 14.4239 39.0842 14.3859 39.6562H9.28125V37.9688ZM12.6562 51.4688V41.3438H14.3868C14.6745 45.6772 17.1442 49.4151 20.7132 51.4688H12.6562ZM41.3438 51.4688H33.2868C36.855 49.4151 39.3255 45.6772 39.6132 41.3438H41.3438V51.4688ZM44.7188 39.6562H39.6132C39.5753 39.0842 39.5128 38.518 39.4006 37.9688H44.7188V39.6562Z" fill="white"/>
<path d="M22.7812 44.7188C23.7119 44.7188 24.4688 43.9619 24.4688 43.0312V40.3009L22.4589 36.2812H26.1562V46.4062H22.7812V48.0938H31.2188V46.4062H27.8438V36.2812H31.5411L29.5312 40.3009V43.0312C29.5312 43.9619 30.2881 44.7188 31.2188 44.7188H34.5938C35.5244 44.7188 36.2812 43.9619 36.2812 43.0312V40.3009L33.4277 34.5938H27.8438V32.9062H26.1562V34.5938H20.5723L17.7188 40.3009V43.0312C17.7188 43.9619 18.4756 44.7188 19.4062 44.7188H22.7812ZM31.2188 43.0312V41.3438H34.5938V43.0312H31.2188ZM34.0723 39.6562H31.7402L32.9062 37.3241L34.0723 39.6562ZM19.4062 43.0312V41.3438H22.7812V43.0312H19.4062ZM21.0938 37.3241L22.2598 39.6562H19.9277L21.0938 37.3241Z" fill="white"/>
</svg>
