<svg width="54" height="54" viewBox="0 0 54 54" fill="none" xmlns="http://www.w3.org/2000/svg">
<g clip-path="url(#clip0)">
<path d="M12.4216 18.388C12.0103 17.9767 11.3416 17.9767 10.9304 18.388C10.518 18.8004 10.518 19.468 10.9304 19.8793C11.3417 20.2917 12.0104 20.2917 12.4216 19.8793C12.8339 19.468 12.8339 18.8004 12.4216 18.388Z" fill="white"/>
<path d="M26.7046 47.2204C27.1696 46.5905 27.421 45.8316 27.421 45.0338C27.421 42.9984 25.7651 41.3425 23.7297 41.3425H5.80058C4.81413 41.3425 3.88716 41.7264 3.19033 42.4234C2.49318 43.1204 2.10927 44.0473 2.10927 45.0338C2.10927 45.8511 2.37674 46.6068 2.82804 47.2191C1.14866 48.1021 0 49.8634 0 51.8889V52.9436C0 53.5261 0.47229 53.9983 1.05469 53.9983H28.4756C29.058 53.9983 29.5303 53.5261 29.5303 52.9436V51.8889C29.5303 49.8644 28.3828 48.1038 26.7046 47.2204ZM4.68177 43.9148C4.98035 43.6161 5.37776 43.4516 5.80058 43.4516H23.7297C24.602 43.4516 25.3116 44.1613 25.3116 45.0336C25.3116 45.4565 25.1471 45.8538 24.8484 46.1525C24.5498 46.4512 24.1524 46.6156 23.7296 46.6156H5.80058C4.92825 46.6156 4.21865 45.9059 4.21865 45.0337C4.21865 44.6108 4.38308 44.2134 4.68177 43.9148ZM2.10927 51.8889C2.10927 50.1444 3.52868 48.725 5.27324 48.725H5.80058H23.7297H24.257C26.0016 48.725 27.421 50.1444 27.421 51.8889H2.10927Z" fill="white"/>
<path d="M53.0182 44.3109C52.66 43.7559 52.2327 43.265 51.7478 42.852L46.8198 38.5538C46.7814 38.496 46.7369 38.4412 46.686 38.3902C46.6003 38.3047 46.5033 38.2379 46.4002 38.1879L43.4199 35.5887L29.6256 23.5556C30.1903 22.9653 30.5012 22.1934 30.5012 21.3725C30.5012 20.5268 30.1721 19.7321 29.5737 19.1339C29.3128 18.8733 29.0162 18.6684 28.6993 18.5183L29.9755 17.2421C30.3322 17.3369 30.6987 17.3855 31.0655 17.3855C32.1456 17.3853 33.2258 16.9742 34.0481 16.152C34.8452 15.355 35.2841 14.2955 35.2841 13.1688C35.2841 12.0421 34.8452 10.9826 34.0482 10.1856L25.0993 1.237C24.3023 0.439969 23.2428 0.00100708 22.1157 0.00100708C20.9892 0.00100708 19.93 0.439969 19.1331 1.237C18.0315 2.33852 17.6689 3.90251 18.0429 5.30968L5.3102 18.0423C4.95836 17.9488 4.59228 17.8994 4.21828 17.8994C3.09103 17.8994 2.03202 18.338 1.23562 19.1343C-0.40927 20.7792 -0.40927 23.4557 1.23562 25.1007L10.1843 34.0495C11.0069 34.872 12.0872 35.2832 13.1675 35.2832C14.248 35.2832 15.3283 34.872 16.1508 34.0495C17.2523 32.9479 17.6149 31.384 17.241 29.9769L18.5145 28.7032C18.6675 29.0228 18.8752 29.3177 19.1332 29.5756C19.7308 30.1731 20.5253 30.5023 21.3707 30.5023C22.1907 30.5023 22.9623 30.1919 23.5535 29.6279L38.2459 46.5086C38.2864 46.5719 38.3337 46.6321 38.3889 46.6874C38.4078 46.7062 38.4279 46.7234 38.4478 46.7405L42.8259 51.7708C42.9348 51.8992 43.0511 52.0256 43.1719 52.1463C44.3743 53.3484 45.9626 54.0007 47.63 54.0007C47.924 54.0007 48.2206 53.9804 48.5178 53.9393C50.5036 53.6644 52.2199 52.4764 53.2263 50.6795C54.3288 48.71 54.2467 46.2097 53.0182 44.3109ZM20.6247 2.72854C21.0233 2.32997 21.5529 2.11039 22.1158 2.11039C22.6795 2.11039 23.2094 2.32997 23.6079 2.72854L32.5567 11.6773C32.9553 12.0758 33.1748 12.6056 33.1748 13.1689C33.1748 13.7322 32.9553 14.262 32.5566 14.6606C31.7345 15.4829 30.3965 15.4829 29.5744 14.6606L20.6252 5.71141C20.625 5.7112 20.6249 5.7111 20.6247 5.71088C19.8024 4.88865 19.8024 3.55078 20.6247 2.72854ZM14.6593 32.558C13.8368 33.3805 12.4983 33.3806 11.6759 32.558L2.72716 23.6093C1.90461 22.7867 1.90461 21.4485 2.72716 20.6259C3.12499 20.2279 3.65466 20.0088 4.21828 20.0088C4.7818 20.0088 5.31115 20.2278 5.70888 20.6255L14.6592 29.5758C15.4816 30.3979 15.4816 31.7359 14.6593 32.558ZM19.0997 25.1351L16.1507 28.0842L7.20105 19.1345L19.1331 7.20232L28.0826 16.152L25.1282 19.1065C25.1186 19.1156 25.1092 19.1244 25.0991 19.1344L19.1361 25.0976C19.1238 25.1097 19.1119 25.1223 19.0997 25.1351ZM22.8656 27.3353C22.8635 27.3374 22.8615 27.3394 22.8594 27.3415L22.1167 28.0842C21.9174 28.2833 21.6526 28.393 21.3706 28.393C21.0887 28.393 20.8237 28.2833 20.6246 28.0841C20.4252 27.8848 20.3154 27.6196 20.3154 27.3375C20.3154 27.0614 20.4207 26.8016 20.6119 26.6057L26.6027 20.6149C27.0133 20.2156 27.6771 20.2206 28.0828 20.6259C28.2822 20.8252 28.392 21.0904 28.392 21.3725C28.392 21.6544 28.2825 21.9188 28.0827 22.1181L27.3443 22.8564C27.3393 22.8614 27.3342 22.8665 27.3293 22.8715L22.8656 27.3353ZM25.0497 28.1342L28.1321 25.0518L41.183 36.4356L36.4207 41.198L25.0497 28.1342ZM37.8088 42.7929L42.7762 37.8253L44.3696 39.2151L39.1968 44.3879L37.8088 42.7929ZM51.386 49.649C50.7053 50.8644 49.5545 51.6664 48.2287 51.85C46.9059 52.0331 45.6062 51.5974 44.6631 50.6547C44.582 50.5737 44.5043 50.4892 44.432 50.4036C44.4286 50.3996 44.4252 50.3955 44.4218 50.3916L40.5848 45.9828L45.9628 40.6048L50.3661 44.4456C50.3694 44.4486 50.3727 44.4514 50.3762 44.4544C50.7058 44.7346 50.9983 45.0712 51.2464 45.4557C52.044 46.6881 52.0999 48.3735 51.386 49.649Z" fill="white"/>
<path d="M19.8807 10.9304C19.4688 10.5185 18.8012 10.5185 18.3892 10.9304L13.9144 15.4052C13.5025 15.8171 13.5025 16.4849 13.9144 16.8967C14.1203 17.1026 14.3902 17.2056 14.6601 17.2056C14.93 17.2056 15.1999 17.1025 15.4059 16.8967L19.8807 12.4218C20.2926 12.0101 20.2926 11.3423 19.8807 10.9304Z" fill="white"/>
</g>
<defs>
<clipPath id="clip0">
<rect width="54" height="54" fill="white"/>
</clipPath>
</defs>
</svg>
