<svg width="36" height="37" viewBox="0 0 36 37" fill="none" xmlns="http://www.w3.org/2000/svg">
<path d="M31.8201 30.5306C33.6666 28.3261 34.9508 25.7128 35.5642 22.9116C36.1775 20.1104 36.1019 17.2039 35.3439 14.4378C34.5858 11.6718 33.1675 9.12758 31.209 7.02048C29.2505 4.91338 26.8093 3.30536 24.0921 2.33245C21.3748 1.35954 18.4614 1.05036 15.5982 1.43107C12.7351 1.81178 10.0065 2.87117 7.64321 4.51963C5.27993 6.1681 3.35153 8.35713 2.02113 10.9015C0.690734 13.446 -0.00252333 16.2709 6.90126e-06 19.1375C0.000977839 23.3046 1.48082 27.3382 4.17986 30.5306L4.15415 30.5523C4.24415 30.6595 4.34701 30.7513 4.43958 30.8572C4.55529 30.9886 4.68001 31.1124 4.79958 31.24C5.15958 31.6278 5.52986 32.0004 5.91815 32.35C6.03643 32.4571 6.15858 32.5566 6.27815 32.6587C6.68958 33.0108 7.11258 33.3451 7.55101 33.6564C7.60758 33.6947 7.65901 33.7444 7.71558 33.784V33.7687C10.7269 35.8715 14.3191 37 18.0013 37C21.6834 37 25.2757 35.8715 28.287 33.7687V33.784C28.3436 33.7444 28.3937 33.6947 28.4516 33.6564C28.8887 33.3438 29.313 33.0108 29.7244 32.6587C29.844 32.5566 29.9661 32.4558 30.0844 32.35C30.4727 31.9991 30.843 31.6278 31.203 31.24C31.3226 31.1124 31.446 30.9886 31.563 30.8572C31.6543 30.7513 31.7584 30.6595 31.8484 30.551L31.8201 30.5306ZM18 8.93081C19.1443 8.93081 20.2629 9.26753 21.2144 9.89838C22.1658 10.5292 22.9074 11.4259 23.3453 12.475C23.7832 13.524 23.8978 14.6784 23.6745 15.7921C23.4513 16.9058 22.9003 17.9288 22.0911 18.7317C21.282 19.5346 20.2511 20.0814 19.1287 20.303C18.0064 20.5245 16.8431 20.4108 15.7859 19.9763C14.7287 19.5417 13.8251 18.8058 13.1894 17.8617C12.5536 16.9176 12.2143 15.8076 12.2143 14.672C12.2143 13.1494 12.8239 11.6891 13.9089 10.6124C14.9939 9.53569 16.4655 8.93081 18 8.93081V8.93081ZM7.72329 30.5306C7.74559 28.8554 8.43165 27.2563 9.63304 26.0792C10.8344 24.9021 12.4545 24.2416 14.1429 24.2408H21.8571C23.5455 24.2416 25.1656 24.9021 26.367 26.0792C27.5684 27.2563 28.2544 28.8554 28.2767 30.5306C25.4569 33.0521 21.7958 34.4475 18 34.4475C14.2042 34.4475 10.5431 33.0521 7.72329 30.5306V30.5306Z" fill="#C2C2C2"/>
</svg>
