<svg width="54" height="54" viewBox="0 0 54 54" fill="none" xmlns="http://www.w3.org/2000/svg">
<g clip-path="url(#clip0)">
<path d="M53.9096 32.9269L53.9177 32.9242L45.0518 13.5798L47.2019 12.5097L46.3973 10.8987L44.3012 11.9427L44.0177 11.3244C43.8105 10.8726 43.2764 10.6743 42.8246 10.8814C42.6286 10.9713 42.4714 11.1285 42.3816 11.3244L42.1287 11.877C40.6032 11.1685 38.9417 10.8009 37.2597 10.7997H29.6998V8.99975H31.4997V7.19977H29.9527L30.5998 4.61049C31.0966 2.62229 29.8876 0.607773 27.8994 0.110864C25.9112 -0.385932 23.8967 0.822983 23.3998 2.81118C23.2522 3.4018 23.2522 4.01976 23.3998 4.61038L24.0469 7.19965H22.4998V8.99964H24.2998V10.7996H16.7444C15.0607 10.801 13.3975 11.1695 11.8709 11.8796L11.618 11.327C11.4109 10.8752 10.8766 10.6769 10.4248 10.884C10.2289 10.9739 10.0717 11.131 9.98183 11.327L9.69833 11.9453L7.60225 10.8968L6.79765 12.5096L8.94774 13.5842L0.0819113 32.9242C0.0272367 33.0418 -0.000663033 33.1699 1.19615e-05 33.2995C0.00394943 36.7772 2.82228 39.5956 6.29996 39.5995H15.2999C18.7776 39.5956 21.5959 36.7772 21.5998 33.2995C21.5976 33.1703 21.5669 33.043 21.5098 32.9269L12.6197 13.5096C13.912 12.9098 15.3197 12.5993 16.7444 12.5997H24.2998V45.5268L21.2272 48.5994H17.9999C15.5159 48.6023 13.5028 50.6154 13.4999 53.0994C13.4999 53.5964 13.9029 53.9994 14.3999 53.9994H39.5997C40.0967 53.9994 40.4997 53.5964 40.4997 53.0994C40.4967 50.6154 38.4837 48.6023 35.9997 48.5994H32.7723L29.6998 45.5268V12.5997H37.2597C38.6844 12.5993 40.0921 12.9098 41.3844 13.5096L32.4816 32.9242C32.427 33.0418 32.3991 33.1699 32.3997 33.2995C32.4037 36.7772 35.222 39.5956 38.6997 39.5995H47.6996C51.1773 39.5956 53.9956 36.7772 53.9996 33.2995C53.9974 33.1703 53.9667 33.043 53.9096 32.9269ZM15.2999 37.7995H6.29996C4.16225 37.7971 2.3203 36.2935 1.89 34.1995H19.7098C19.2796 36.2935 17.4376 37.7971 15.2999 37.7995ZM19.2976 32.3996H2.30219L10.5695 14.3628C10.7205 14.4033 10.8793 14.4033 11.0303 14.3628L19.2976 32.3996ZM25.4941 2.53421C26.195 1.70261 27.4373 1.59675 28.2689 2.29762C28.3543 2.36962 28.4335 2.44882 28.5055 2.53421C28.8695 2.99725 28.9981 3.60295 28.8538 4.17399L28.0969 7.19977H25.9027L25.1458 4.17399C25.0015 3.60295 25.1302 2.99725 25.4941 2.53421ZM26.0998 10.7997V8.99975H27.8998V10.7997H26.0998ZM27.8998 12.5997V44.9994H26.0998V12.5997H27.8998ZM35.9997 50.3994C37.1436 50.4008 38.163 51.1214 38.5458 52.1994H15.4538C15.8366 51.1214 16.856 50.4008 17.9999 50.3994H35.9997ZM30.2272 48.5994H23.7724L25.5724 46.7994H28.4272L30.2272 48.5994ZM42.9674 14.3655C43.1161 14.4178 43.2791 14.4111 43.4228 14.3466L51.6974 32.3996H34.7019L42.9674 14.3655ZM47.6996 37.7995H38.6997C36.562 37.7971 34.72 36.2935 34.2897 34.1995H52.1096C51.6794 36.2935 49.8373 37.7971 47.6996 37.7995Z" fill="white"/>
</g>
<defs>
<clipPath id="clip0">
<rect width="54" height="54" fill="white"/>
</clipPath>
</defs>
</svg>
