<svg width="54" height="54" viewBox="0 0 54 54" fill="none" xmlns="http://www.w3.org/2000/svg">
<g clip-path="url(#clip0)">
<path d="M42.9865 19.6723C43.1307 19.7435 43.2879 19.779 43.4454 19.779C43.6103 19.779 43.7753 19.74 43.9249 19.662C44.7654 19.2239 47.5099 17.6232 47.5415 15.4208C47.5864 14.1008 46.3886 12.743 44.9032 12.7672C44.3819 12.7672 43.8798 12.9166 43.4504 13.1944C43.0243 12.9164 42.5281 12.7672 42.0131 12.7672C40.6412 12.7527 39.3871 13.9575 39.356 15.3934C39.3098 17.679 42.1232 19.2464 42.9865 19.6723ZM42.0055 14.3493H42.0129C42.2823 14.3493 42.54 14.4525 42.7395 14.6406C42.7396 14.6407 42.7397 14.6408 42.7398 14.6409C43.1355 15.0135 43.7583 15.0137 44.1573 14.6415C44.3596 14.453 44.6243 14.3493 44.903 14.3493C45.3266 14.3563 45.932 14.6937 45.9595 15.398C45.9446 16.4405 44.4676 17.5445 43.4389 18.1258C42.3992 17.5662 40.9161 16.4882 40.9375 15.4254C40.9491 14.856 41.4482 14.3532 42.0055 14.3493Z" fill="white"/>
<path d="M10.065 19.6724C10.2092 19.7435 10.3663 19.779 10.5237 19.779C10.6887 19.779 10.8536 19.74 11.0033 19.662C11.8436 19.2239 14.5881 17.6232 14.6198 15.4207C14.6646 14.1009 13.4667 12.743 11.9814 12.7672C11.4602 12.7672 10.9581 12.9166 10.5287 13.1944C10.0975 12.913 9.59294 12.7633 9.07266 12.7672C7.64683 12.7774 6.46315 13.9555 6.43415 15.3934C6.38817 17.679 9.20144 19.2464 10.065 19.6724ZM9.08395 14.3493H9.09133C9.36069 14.3493 9.61846 14.4525 9.8178 14.6406C9.8179 14.6407 9.81801 14.6408 9.81811 14.6409C10.2137 15.0134 10.8364 15.0138 11.2356 14.6415C11.4378 14.453 11.7026 14.3493 11.9813 14.3493C12.4049 14.3563 13.0103 14.6937 13.0379 15.398C13.0229 16.4405 11.5459 17.5445 10.5172 18.1258C9.47755 17.5662 7.99445 16.4882 8.01597 15.4254C8.02747 14.8559 8.52654 14.3532 9.08395 14.3493Z" fill="white"/>
<path d="M5.06178 22.1135H7.60674C7.69745 22.1135 7.78288 22.1489 7.84711 22.2129L9.56983 23.9322C9.8334 24.1952 10.1807 24.3268 10.5281 24.3268C10.8724 24.3268 11.2166 24.1976 11.4794 23.9389L13.2355 22.2112C13.2995 22.1481 13.3843 22.1134 13.4742 22.1134H15.9887C17.5477 22.1134 18.8161 20.8452 18.8161 19.286V16.3202C19.1998 16.459 19.6132 16.5351 20.0441 16.5351H23.4546C23.7148 16.5351 23.9626 16.6472 24.1345 16.8423L25.8588 18.8012C26.1576 19.1407 26.5885 19.3363 27.0407 19.3381H27.0471C27.497 19.3381 27.9267 19.1462 28.2268 18.8107L29.9927 16.8369C30.1643 16.6451 30.4104 16.5351 30.6678 16.5351H34.0404C34.4293 16.5351 34.8038 16.4726 35.1552 16.3586V19.2861C35.1552 20.8452 36.4234 22.1135 37.9826 22.1135H40.5275C40.6182 22.1135 40.7037 22.1489 40.7679 22.2129L42.4906 23.9322C42.7542 24.1952 43.1016 24.3268 43.449 24.3268C43.7932 24.3268 44.1374 24.1976 44.4004 23.9389L46.1565 22.2111C46.2205 22.1481 46.3053 22.1134 46.3952 22.1134H48.9097C50.4686 22.1134 51.737 20.8452 51.737 19.286V11.9459C51.737 10.3869 50.4687 9.11851 48.9097 9.11851H37.6595V3.61916C37.6595 1.62359 36.0359 0 34.0403 0H27.5961C27.1592 0 26.8051 0.354059 26.8051 0.791016C26.8051 1.22797 27.1592 1.58203 27.5961 1.58203H34.0403C35.1635 1.58203 36.0774 2.49592 36.0774 3.61916V12.9158C36.0774 14.0392 35.1635 14.953 34.0403 14.953H30.6677C29.9607 14.953 29.2849 15.2552 28.8134 15.782L27.0463 17.7559L25.3221 15.797C24.8499 15.2607 24.1692 14.953 23.4546 14.953H20.0441C18.9208 14.953 18.0069 14.0392 18.0069 12.9158V3.61916C18.0069 2.49592 18.9208 1.58203 20.0441 1.58203H23.9047C24.3416 1.58203 24.6957 1.22797 24.6957 0.791016C24.6957 0.354059 24.3416 0 23.9047 0H20.0441C18.0485 0 16.4249 1.62359 16.4249 3.61916V9.11872H5.06178C3.50274 9.11872 2.23438 10.387 2.23438 11.9461V19.2862C2.23438 20.8453 3.50274 22.1135 5.06178 22.1135ZM48.9096 10.7008C49.5962 10.7008 50.1548 11.2594 50.1548 11.9461V19.2862C50.1548 19.9729 49.5962 20.5316 48.9096 20.5316H46.3951C45.8875 20.5316 45.4086 20.7276 45.047 21.0835L43.4499 22.6546L41.8854 21.0931C41.5225 20.7309 41.0402 20.5315 40.5274 20.5315H37.9825C37.2958 20.5315 36.7371 19.9728 36.7371 19.2861V15.3261C37.3101 14.6856 37.6594 13.8408 37.6594 12.9157V10.7006H48.9096V10.7008ZM3.81641 11.9461C3.81641 11.2594 4.37507 10.7008 5.06178 10.7008H16.4249V12.9158C16.4249 13.7783 16.7286 14.5709 17.234 15.1934V19.2861C17.234 19.9728 16.6754 20.5315 15.9887 20.5315H13.4742C12.9667 20.5315 12.4879 20.7275 12.1261 21.0834L10.5291 22.6545L8.96455 21.093C8.60163 20.7308 8.11943 20.5314 7.60664 20.5314H5.06168C4.37497 20.5314 3.8163 19.9727 3.8163 19.286V11.9461H3.81641Z" fill="white"/>
<path d="M21.1883 7.46024C21.1226 10.7178 25.2547 13.0119 26.5224 13.6372C26.6849 13.7175 26.8623 13.7576 27.0397 13.7576C27.2256 13.7576 27.4114 13.7136 27.5801 13.6257C28.8171 12.9811 32.8562 10.633 32.9014 7.48756C32.9684 5.63922 31.2824 3.80501 29.2761 3.84519C28.463 3.84519 27.6841 4.10897 27.0463 4.59465C26.4065 4.10327 25.6286 3.84213 24.8167 3.84519C22.8559 3.85901 21.2282 5.4807 21.1883 7.46024ZM24.8281 5.42722C24.833 5.42712 24.8378 5.42712 24.8427 5.42712C25.364 5.42712 25.8622 5.62645 26.2469 5.98906V5.98916C26.6922 6.40882 27.3937 6.40872 27.8441 5.98895C28.2329 5.62645 28.7411 5.42722 29.2761 5.42722C30.2473 5.41035 31.3464 6.28964 31.3196 7.46488C31.2944 9.21598 29.0373 11.0428 27.0348 12.1242C25.0028 11.0827 22.7338 9.28559 22.7699 7.4922C22.7925 6.38056 23.7348 5.43492 24.8281 5.42722Z" fill="white"/>
<path d="M52.0875 47.9132V36.3913C52.0875 31.6491 48.2295 27.791 43.4873 27.791C42.1243 27.791 40.7672 28.1182 39.5625 28.7371C39.1738 28.9367 39.0207 29.4135 39.2204 29.8021C39.42 30.1907 39.8969 30.3439 40.2854 30.1442C41.2814 29.6325 42.3587 29.373 43.4873 29.373C47.3572 29.373 50.5055 32.5214 50.5055 36.3913V46.5178C50.4839 46.5085 50.4633 46.4976 50.4415 46.4886H50.4416L46.4578 44.847V43.3006C47.9802 41.7806 49.1507 39.343 49.1507 37.1006C49.1507 34.2127 47.865 31.9435 45.7113 31.0304C45.5157 30.9475 45.2948 30.9471 45.0982 31.0287C44.962 31.0937 44.713 31.2437 44.6296 31.5898C44.1528 33.766 42.4372 35.4734 40.2587 35.9395L38.4482 36.327C38.1442 36.3858 37.8265 36.7507 37.8247 37.2588C37.8794 39.4795 39.0304 41.8333 40.517 43.3104V44.847L37.37 46.1437C37.1163 45.8305 36.8132 45.556 36.4693 45.3303V36.3911C36.4693 34.9412 36.9075 33.5497 37.7366 32.3672C37.9874 32.0094 37.9008 31.5163 37.5431 31.2655C37.1852 31.0147 36.6922 31.1014 36.4414 31.459C35.4246 32.909 34.8874 34.6145 34.8874 36.3913V44.5981L30.5585 42.8144V39.8095C32.5403 38.2043 33.7145 35.3163 33.9329 32.4752C34.97 31.731 35.5756 30.2259 35.9103 29.021C36.1395 28.196 35.9992 27.3154 35.5253 26.6048C35.2257 26.1556 34.812 25.8046 34.3339 25.5826C34.3813 25.3189 34.3935 25.0482 34.3693 24.7762C34.24 23.3258 33.0935 22.1812 31.643 22.0547C31.1009 22.0075 30.5646 22.1078 30.0873 22.3341C29.504 21.2124 28.3322 20.4609 26.9984 20.4609C26.4079 20.4609 25.8316 20.6111 25.3214 20.892C24.7983 20.4781 24.1511 20.25 23.4652 20.25C22.1309 20.25 20.9971 21.1061 20.6058 22.3249C18.7652 22.6726 17.4008 24.2723 17.4008 26.209C17.4008 27.0914 17.6926 27.9389 18.2288 28.6301C18.2147 29.0743 18.2161 29.8932 18.3635 30.679C18.6404 32.1559 19.6205 32.93 20.2104 33.2713C20.2808 33.7874 20.3808 34.3014 20.5124 34.8033C20.6051 35.1015 20.9903 35.5004 21.4781 35.368C21.9007 35.2573 22.1535 34.8249 22.0428 34.4023C21.9021 33.8652 21.8 33.3123 21.7395 32.7591C21.7046 32.4533 21.8189 32.3188 22.5124 31.9803C22.9816 31.7558 23.5807 31.4692 23.9532 30.8796C25.5292 31.0552 27.29 30.1779 28.1458 28.8327C28.6851 29.1837 29.5009 29.4984 30.3468 29.4135C30.7504 30.2756 31.3198 30.6682 31.758 30.9703C32.2293 31.295 32.3744 31.396 32.3771 31.993C32.2133 35.6898 30.1681 39.5072 27.0213 39.5072C25.2823 39.5072 24.1148 38.4022 23.4416 37.4754C23.1848 37.1218 22.6901 37.0433 22.3367 37.3002C21.9833 37.557 21.9048 38.0515 22.1615 38.4051C22.5645 38.9598 23.0081 39.4315 23.4862 39.8178V42.8145C22.1831 43.3513 19.5231 44.4475 18.2442 44.9744C17.6095 45.2359 17.0718 45.6479 16.6624 46.1584L13.48 44.8471V42.4149C14.5948 41.4256 15.5461 39.9782 16.0479 38.3917C16.2743 38.3591 16.4772 38.2308 16.6017 38.0361C17.4241 36.7515 19.0037 32.856 16.4713 30.2917C15.476 29.2839 14.0758 29.072 12.9205 29.2931C12.8719 29.1874 12.8169 29.0856 12.7548 28.9885C11.6865 27.3195 8.92541 27.0854 6.46883 28.4559C6.08735 28.6687 5.95055 29.1505 6.16339 29.532C6.37623 29.9136 6.85801 30.0505 7.23959 29.8374C9.08213 28.8098 10.89 29.0096 11.4224 29.8413C11.6428 30.1857 11.6569 30.7149 11.4612 31.2937C11.1705 32.1531 10.3375 33.2616 8.8713 33.7952C7.18159 34.4102 6.01362 35.3761 5.29633 36.1353C4.9988 35.0921 4.82752 33.6014 5.236 32.2468C5.36214 31.8285 5.12526 31.3872 4.70697 31.261C4.28847 31.135 3.8474 31.3717 3.72126 31.7901C2.99142 34.2108 3.7065 36.987 4.41978 38.1012C4.54835 38.302 4.75939 38.4321 4.99248 38.4598C5.5002 40.0145 6.44151 41.4326 7.53902 42.4084V44.847C7.46656 44.8789 3.58774 46.4713 3.51085 46.5089C2.2466 47.0506 1.43164 48.2815 1.43164 49.6604V52.1531C1.43164 53.1714 2.2601 54 3.2784 54H50.7182C51.7365 54 52.565 53.1716 52.565 52.1532V49.6603C52.5651 49.0296 52.3934 48.4304 52.0875 47.9132ZM31.6168 28.2954C31.5587 28.0879 31.4185 27.9131 31.2287 27.8114C31.0388 27.7096 30.8158 27.6898 30.6109 27.7562C30.4319 27.8143 30.2455 27.8438 30.057 27.8438C29.4615 27.8438 28.9061 27.5489 28.5713 27.0548C28.4021 26.8053 28.1061 26.6736 27.8067 26.7152C27.5079 26.7571 27.259 26.9653 27.165 27.2521C26.759 28.4891 25.6113 29.3203 24.309 29.3203C24.1623 29.3203 23.8072 29.2657 23.6136 29.2289C23.1929 29.1487 22.7851 29.4176 22.6928 29.8356C22.6245 30.1453 22.3897 30.2852 21.8296 30.5531C21.4119 30.753 20.8612 31.0164 20.5046 31.521C20.2561 31.2675 20.0146 30.9003 19.9184 30.3875C19.7457 29.4663 19.8219 28.4292 19.8226 28.4195C19.8398 28.1995 19.7643 27.9823 19.6145 27.8204C19.2071 27.3805 18.9827 26.8082 18.9827 26.2091C18.9827 24.9177 19.9936 23.8762 21.2841 23.8382C21.6833 23.8263 22.0111 23.5188 22.0484 23.1211C22.1171 22.3862 22.7262 21.832 23.4652 21.832C23.9121 21.832 24.3249 22.0379 24.5979 22.3968C24.7305 22.5714 24.9298 22.6831 25.148 22.7051C25.3661 22.7271 25.5837 22.6576 25.7487 22.5131C26.0949 22.2099 26.5387 22.043 26.9984 22.043C27.9649 22.043 28.7757 22.766 28.8841 23.7247C28.9198 24.0397 29.1401 24.3031 29.4439 24.3938C29.7484 24.4849 30.0765 24.3848 30.2789 24.1408C30.5823 23.7751 31.0286 23.5889 31.5054 23.6307C32.1796 23.6895 32.7333 24.2423 32.7933 24.9167C32.8188 25.2027 32.7603 25.4848 32.6241 25.7327C32.4965 25.9648 32.4936 26.2455 32.6163 26.4803C32.7391 26.715 32.9712 26.8728 33.2347 26.9003C33.5826 26.9299 33.9329 27.1026 34.2089 27.4825C34.4272 27.8099 34.4918 28.2163 34.3858 28.5974C34.1638 29.3969 33.8852 30.0641 33.5832 30.5417C33.3173 30.1234 32.9563 29.8745 32.6558 29.6675C32.2025 29.355 31.8443 29.1081 31.6168 28.2954ZM40.5896 37.4868C43.0238 36.9658 45.0057 35.2324 45.8725 32.9458C46.9482 33.7854 47.5685 35.273 47.5685 37.1007C47.5685 39.9393 45.0982 43.2233 43.4866 43.2233C41.993 43.2233 39.7626 40.4278 39.4432 37.7322L40.5896 37.4868ZM25.6173 52.418C25.327 49.6939 24.3 47.0628 22.6723 44.8609L24.091 44.2764C24.8945 44.9885 25.934 45.3893 27.0214 45.3894H27.0222C28.1119 45.3894 29.1538 44.9871 29.9542 44.2766L31.3504 44.852C29.7132 47.0533 28.6766 49.6897 28.3808 52.418H25.6173ZM32.8661 45.4764L35.1976 46.4372C36.0913 46.8053 36.6686 47.6678 36.6686 48.6343V52.418H29.9755C30.281 49.8959 31.2894 47.4695 32.8661 45.4764ZM27.0213 41.0891C27.7215 41.0891 28.3738 40.9622 28.9763 40.7317V43.0282C28.4512 43.5263 27.7532 43.8073 27.0223 43.8073C27.0222 43.8073 27.0219 43.8073 27.0218 43.8073C26.2898 43.8072 25.5907 43.5252 25.0683 43.0288V40.7336C25.6851 40.9678 26.3385 41.0891 27.0213 41.0891ZM15.7938 52.418H14.4143L15.7938 50.8164V52.418ZM15.8032 48.3815L12.3262 52.418H8.7266L5.10027 47.5631L8.14989 46.3066C8.80633 46.857 9.63953 47.1646 10.5089 47.1648H10.5095C11.3787 47.1648 12.2117 46.8574 12.869 46.3065L15.9401 47.5719C15.8677 47.8333 15.8207 48.104 15.8032 48.3815ZM15.3457 31.4034C16.7226 32.7977 16.289 34.9124 15.7461 36.2375C15.2272 35.7229 14.482 35.0632 13.5796 34.4856C13.0128 34.1228 12.5542 33.6412 12.2774 33.1274C12.5686 32.7163 12.8009 32.2708 12.9598 31.8008C13.0667 31.4845 13.1336 31.1694 13.1619 30.8627C13.8198 30.728 14.7309 30.7811 15.3457 31.4034ZM6.32434 37.3513C6.88564 36.7258 7.8896 35.8364 9.41236 35.2821C10.0518 35.0494 10.6387 34.7185 11.1504 34.3128C11.5465 34.8897 12.0838 35.4064 12.7267 35.818C13.5433 36.3407 14.2216 36.9509 14.6791 37.4093C14.069 40.0066 11.9421 42.1686 10.5087 42.1686C9.07454 42.1685 6.91707 39.9697 6.32434 37.3513ZM10.5088 43.7505C10.9656 43.7505 11.4342 43.6428 11.8979 43.4455V45.0555C11.5176 45.3932 11.0247 45.5826 10.5095 45.5826C10.5094 45.5826 10.5093 45.5826 10.5091 45.5826C9.99507 45.5825 9.50306 45.3937 9.12116 45.055V43.4431C9.58511 43.6416 10.0534 43.7505 10.5088 43.7505ZM3.01378 52.1531V49.6604C3.01378 49.1131 3.25256 48.6096 3.65007 48.2652L6.75191 52.418H3.2785C3.13254 52.418 3.01378 52.2992 3.01378 52.1531ZM17.3759 48.6343C17.3759 47.6678 17.9533 46.8052 18.847 46.4372L21.1588 45.4846C22.7256 47.479 23.7235 49.9006 24.0232 52.418H17.376V48.6343H17.3759ZM38.2507 52.418V48.6343C38.2507 48.2621 38.1971 47.8999 38.0996 47.5543L40.5231 46.5556C40.5538 48.5485 40.7384 50.6428 41.8471 52.418H38.2507ZM42.0989 45.3751V44.4621C42.5608 44.6817 43.029 44.8053 43.4866 44.8053C43.9444 44.8053 44.4132 44.6824 44.8757 44.4607C44.8758 44.4627 44.8755 45.2966 44.8758 45.3788C44.8758 47.7527 44.8751 50.2023 43.4874 52.0074C42.0995 50.2052 42.0989 47.753 42.0989 45.3768C42.099 45.3761 42.0989 45.3756 42.0989 45.3751ZM50.9831 52.1532C50.9831 52.2992 50.8643 52.418 50.7183 52.418H45.127C46.2362 50.6411 46.4208 48.5477 46.4516 46.5557L49.8387 47.9514H49.8388C50.5339 48.2377 50.9831 48.9085 50.9831 49.6603V52.1532Z" fill="white"/>
</g>
<defs>
<clipPath id="clip0">
<rect width="54" height="54" fill="white"/>
</clipPath>
</defs>
</svg>
