<svg width="54" height="54" viewBox="0 0 54 54" fill="none" xmlns="http://www.w3.org/2000/svg">
<g clip-path="url(#clip0)">
<path d="M19.9253 34.793H23.4064C24.8309 34.793 25.9898 33.6341 25.9898 32.2095V29.5698C25.9898 28.1452 24.8309 26.9863 23.4064 26.9863H19.9253C18.5007 26.9863 17.3418 28.1452 17.3418 29.5698V32.2095C17.3418 33.6341 18.5007 34.793 19.9253 34.793ZM18.9238 29.5698C18.9238 29.0175 19.3731 28.5683 19.9253 28.5683H23.4064C23.9585 28.5683 24.4078 29.0175 24.4078 29.5698V32.2095C24.4078 32.7618 23.9585 33.211 23.4064 33.211H19.9253C19.3731 33.211 18.9238 32.7618 18.9238 32.2095V29.5698Z" fill="white"/>
<path d="M53.209 42.5985H52.7845L50.719 38.0087C51.8296 37.5614 52.6159 36.4735 52.6159 35.2046C52.6159 33.5382 51.2602 32.1824 49.5938 32.1824H43.9412V30.3818C43.9412 29.7756 43.725 29.2046 43.3329 28.7585V16.8555C43.3329 16.8226 43.3303 16.7903 43.3264 16.7585C43.2821 15.557 42.8532 14.3934 42.0762 13.4359C41.0054 12.1161 39.4164 11.3592 37.7168 11.3592H34.6234V7.37354C34.6234 3.54977 31.513 0.438965 27.6899 0.438965H15.6431C14.7928 0.438965 13.9605 0.592422 13.1689 0.895117C12.7609 1.05111 12.5566 1.50842 12.7127 1.91648C12.8686 2.32443 13.3257 2.52893 13.734 2.37284C14.3445 2.13944 14.9868 2.0211 15.6432 2.0211H27.6899C30.6408 2.0211 33.0414 4.4222 33.0414 7.37364V11.3593H29.9943V7.37364C29.9943 6.10295 28.9605 5.06915 27.6898 5.06915H15.6431C14.3723 5.06915 13.3385 6.10295 13.3385 7.37364V11.3593H10.2916V7.37364C10.2916 6.13343 10.7272 4.92402 11.518 3.96806C11.7966 3.6315 11.7494 3.13285 11.4129 2.8543C11.0763 2.57597 10.5777 2.62291 10.2991 2.95956C9.27418 4.19829 8.70961 5.76587 8.70961 7.37343V11.3591H5.61516C3.91605 11.3591 2.32738 12.1159 1.25666 13.4356C0.479672 14.3931 0.0508359 15.5565 0.00653906 16.7579C0.00263672 16.79 0 16.8224 0 16.8555V35.9113C0 41.0552 4.18489 45.2401 9.32882 45.2401H29.3467C30.0474 46.7476 31.5751 47.7958 33.3441 47.7958C35.3836 47.7958 37.1033 46.4028 37.6031 44.5184C38.0867 44.3158 38.553 44.0718 38.9964 43.7904V48.6328H36.0246C34.6659 48.6328 33.5605 49.7382 33.5605 51.097C33.5605 52.4557 34.6659 53.5611 36.0246 53.5611H46.9128C48.2716 53.5611 49.377 52.4557 49.377 51.097C49.377 49.7382 48.2716 48.6328 46.9128 48.6328H43.9409V42.0698C45.3727 41.3029 46.4102 39.8922 46.6626 38.2268H48.3701L46.4026 42.5985H45.978C45.5411 42.5985 45.187 42.9527 45.187 43.3895C45.187 45.8192 47.1637 47.7958 49.5934 47.7958C52.0231 47.7958 54 45.8191 54 43.3895C54 42.9527 53.6459 42.5985 53.209 42.5985ZM40.5786 32.1824V30.3818C40.5786 29.8909 40.978 29.4915 41.4688 29.4915C41.7072 29.4915 41.9298 29.5837 42.0998 29.7547C42.2669 29.9207 42.359 30.1434 42.359 30.3818V32.1824H40.5786ZM41.7508 27.9258C41.4836 27.8942 41.2 27.9093 40.9414 27.9666C41.1649 27.5199 41.3351 27.0404 41.4417 26.5353L41.7509 25.0662V27.9258H41.7508ZM14.9207 7.37343C14.9207 6.97507 15.2448 6.65097 15.6432 6.65097H27.6899C28.0882 6.65097 28.4123 6.97507 28.4123 7.37343V11.3591H14.9207V7.37343ZM9.32882 43.6581C5.05723 43.6581 1.58203 40.1829 1.58203 35.9113V25.0662L1.89116 26.5354C2.47229 29.2955 4.941 31.2989 7.76145 31.2989H14.3521V33.3267C14.3521 35.5877 16.1916 37.4273 18.4527 37.4273H24.8802C27.1412 37.4273 28.9808 35.5877 28.9808 33.3267V31.2989H32.2513C32.6882 31.2989 33.0423 30.9447 33.0423 30.5079C33.0423 30.071 32.6882 29.7169 32.2513 29.7169H28.9808V28.4525C28.9808 26.1915 27.1413 24.3519 24.8802 24.3519H18.4527C16.1917 24.3519 14.3521 26.1914 14.3521 28.4525V29.7169H7.76145C5.68487 29.7169 3.86701 28.2418 3.43934 26.2096L1.67052 17.8026C1.41919 16.6086 1.71619 15.3802 2.48527 14.4323C3.25424 13.4846 4.39499 12.941 5.61526 12.941H37.7168C38.9375 12.941 40.0788 13.4846 40.8478 14.4325C41.6169 15.3802 41.9138 16.6086 41.6626 17.8027L39.8938 26.2092C39.4651 28.2417 37.6473 29.7169 35.5715 29.7169H35.4133C34.9764 29.7169 34.6223 30.071 34.6223 30.5079C34.6223 30.9447 34.9764 31.2989 35.4133 31.2989H35.5715C36.8314 31.2989 38.0206 30.898 39.0034 30.2091C38.9994 30.2662 38.9968 30.3235 38.9968 30.3816V32.1823H33.3443C31.6778 32.1823 30.3221 33.538 30.3221 35.2045C30.3221 36.4733 31.1084 37.5613 32.219 38.0086L30.1534 42.5984H29.729C29.292 42.5984 28.938 42.9526 28.938 43.3894C28.938 43.4797 28.9416 43.569 28.947 43.6579H9.32882V43.6581ZM15.9341 30.51C15.9341 30.5093 15.9342 30.5086 15.9342 30.5079C15.9342 30.5072 15.9341 30.5065 15.9341 30.5058V28.4524C15.9341 27.0637 17.064 25.9338 18.4527 25.9338H24.8802C26.2689 25.9338 27.3988 27.0636 27.3988 28.4524V33.3265C27.3988 34.7153 26.2689 35.8451 24.8802 35.8451H18.4527C17.064 35.8451 15.9341 34.7153 15.9341 33.3265V30.51ZM37.5084 42.8207C37.3661 42.6834 37.1728 42.5985 36.9594 42.5985H36.535L34.5675 38.2268H36.2748C36.5172 39.8252 37.4829 41.1886 38.826 41.9737C38.4163 42.2997 37.9739 42.5839 37.5084 42.8207ZM34.8002 42.5985H31.8881L33.3442 39.3633L34.8002 42.5985ZM33.3441 46.2138C32.0612 46.2138 30.9754 45.354 30.6325 44.1805H30.6646H36.0236H36.0558C35.7127 45.354 34.6269 46.2138 33.3441 46.2138ZM47.7952 51.097C47.7952 51.5834 47.3994 51.9791 46.913 51.9791H36.0247C35.5383 51.9791 35.1426 51.5834 35.1426 51.097C35.1426 50.6106 35.5383 50.2148 36.0247 50.2148H46.9129C47.3994 50.2148 47.7952 50.6106 47.7952 51.097ZM42.3591 48.6328H40.5786V42.6127C40.8682 42.6623 41.1653 42.6893 41.4688 42.6893C41.7723 42.6893 42.0695 42.6623 42.359 42.6127V48.6328H42.3591ZM45.9312 36.6448C45.4943 36.6448 45.1402 36.999 45.1402 37.4358C45.1402 39.4602 43.4933 41.1072 41.4688 41.1072C39.4444 41.1072 37.7974 39.4602 37.7974 37.4358C37.7974 36.999 37.4433 36.6448 37.0063 36.6448H33.3439C32.5499 36.6448 31.9038 35.9988 31.9038 35.2046C31.9038 34.4106 32.5499 33.7645 33.3439 33.7645H49.5935C50.3876 33.7645 51.0336 34.4106 51.0336 35.2046C51.0336 35.9987 50.3876 36.6448 49.5935 36.6448H45.9312ZM49.5937 39.3633L51.0497 42.5985H48.1377L49.5937 39.3633ZM49.5937 46.2138C48.3109 46.2138 47.225 45.354 46.882 44.1805H46.9143H52.2732H52.3054C51.9623 45.354 50.8765 46.2138 49.5937 46.2138Z" fill="white"/>
<path d="M41.4684 35.0421C40.1611 35.0421 39.0977 36.1056 39.0977 37.4128C39.0977 38.7201 40.1611 39.7835 41.4684 39.7835C42.7757 39.7835 43.8391 38.72 43.8391 37.4128C43.8391 36.1057 42.7756 35.0421 41.4684 35.0421ZM41.4684 38.2013C41.0335 38.2013 40.6797 37.8476 40.6797 37.4127C40.6797 36.9779 41.0334 36.624 41.4684 36.624C41.9033 36.624 42.2571 36.9778 42.2571 37.4127C42.2571 37.8477 41.9032 38.2013 41.4684 38.2013Z" fill="white"/>
</g>
<defs>
<clipPath id="clip0">
<rect width="54" height="54" fill="white"/>
</clipPath>
</defs>
</svg>
