<svg width="24" height="24" viewBox="0 0 24 24" fill="none" xmlns="http://www.w3.org/2000/svg">
<path d="M12.8719 1.20122C12.6175 1.01954 12.3126 0.921875 12 0.921875C11.6874 0.921875 11.3825 1.01954 11.1281 1.20122L0.75 8.61418V23.2501H23.25V8.61418L12.8719 1.20122ZM21.75 18.8764L15.9361 15.1389L21.75 10.617V18.8764ZM12 2.4218L21.3014 9.06577L14.5985 14.279L12 12.6085L9.40153 14.279L2.69864 9.06577L12 2.4218ZM2.25 10.617L8.06391 15.1389L2.25 18.8764V10.617ZM21.75 21.7501H2.25V20.6596L12 14.3918L21.75 20.6596V21.7501Z" fill="white"/>
</svg>
