<svg width="54" height="54" viewBox="0 0 54 54" fill="none" xmlns="http://www.w3.org/2000/svg">
<path d="M16.6543 19.6074C16.315 19.3322 15.817 19.3841 15.5417 19.7235C15.2222 20.1176 14.7985 20.3345 14.3486 20.3345C13.8986 20.3345 13.475 20.1175 13.1554 19.7235C12.8802 19.3842 12.382 19.3323 12.0428 19.6074C11.7035 19.8826 11.6515 20.3807 11.9267 20.72C12.5433 21.4804 13.4261 21.9165 14.3486 21.9165C15.271 21.9165 16.1537 21.4804 16.7705 20.72C17.0456 20.3807 16.9936 19.8826 16.6543 19.6074Z" fill="white"/>
<path d="M10.7324 14.9119C10.2956 14.9119 9.94141 15.2661 9.94141 15.7029V16.6067C9.94141 17.0435 10.2956 17.3977 10.7324 17.3977C11.1693 17.3977 11.5234 17.0435 11.5234 16.6067V15.7029C11.5234 15.2661 11.1693 14.9119 10.7324 14.9119Z" fill="white"/>
<path d="M17.9629 14.9119C17.526 14.9119 17.1719 15.2661 17.1719 15.7029V16.6067C17.1719 17.0435 17.5259 17.3977 17.9629 17.3977C18.3997 17.3977 18.7539 17.0435 18.7539 16.6067V15.7029C18.7539 15.2661 18.3997 14.9119 17.9629 14.9119Z" fill="white"/>
<path d="M42.8613 24.1261C42.522 23.851 42.0239 23.9029 41.7487 24.2423C41.4291 24.6362 41.0053 24.8532 40.5555 24.8532C40.1056 24.8532 39.6819 24.6362 39.3623 24.2423C39.0873 23.903 38.589 23.851 38.2498 24.1261C37.9105 24.4013 37.8586 24.8994 38.1337 25.2387C38.7503 25.9993 39.6331 26.4353 40.5555 26.4353C41.478 26.4353 42.3606 25.9992 42.9773 25.2387C43.2525 24.8994 43.2006 24.4013 42.8613 24.1261Z" fill="white"/>
<path d="M36.9414 19.4307C36.5046 19.4307 36.1504 19.7849 36.1504 20.2217V21.1255C36.1504 21.5624 36.5046 21.9165 36.9414 21.9165C37.3783 21.9165 37.7324 21.5624 37.7324 21.1255V20.2217C37.7324 19.7849 37.3783 19.4307 36.9414 19.4307Z" fill="white"/>
<path d="M44.1719 19.4307C43.735 19.4307 43.3809 19.7849 43.3809 20.2217V21.1255C43.3809 21.5624 43.7349 21.9165 44.1719 21.9165C44.6087 21.9165 44.9629 21.5624 44.9629 21.1255V20.2217C44.9629 19.7849 44.6087 19.4307 44.1719 19.4307Z" fill="white"/>
<path d="M51.7987 35.0733L45.6017 32.5945C45.5681 32.5811 45.5371 32.564 45.5057 32.5475C49.786 31.5736 51.8131 29.945 51.9031 29.8713C52.1171 29.6959 52.2239 29.4214 52.1848 29.1475C52.1758 29.0849 51.2889 22.8051 51.2889 16.6068C51.2889 10.6889 46.4743 5.87434 40.5565 5.87434C34.6386 5.87434 29.8241 10.6888 29.8241 16.6068C29.8241 18.2283 29.7505 20.2115 29.6307 22.089L27.9038 22.9525L22.835 20.4181C22.8204 20.4109 22.8051 20.4056 22.7902 20.3993C23.0313 19.6965 23.189 18.9555 23.2469 18.1865C24.3072 17.8589 25.0798 16.8695 25.0798 15.703C25.0798 14.9174 24.7288 14.2126 24.176 13.7357V8.47279C24.176 7.0189 23.4414 5.65855 22.2367 4.84116C21.8286 3.32451 20.4659 2.25917 18.8662 2.25917H11.636C7.7115 2.25917 4.51862 5.45204 4.51862 9.37656V13.7356C3.96586 14.2124 3.61486 14.9173 3.61486 15.7029C3.61486 16.8694 4.38742 17.8588 5.4477 18.1864C5.64746 20.842 7.01603 23.1753 9.03746 24.677V26.8634L2.49583 28.8258C1.00301 29.2738 0 30.6218 0 32.1804V41.0083C0 41.4451 0.354166 41.7993 0.79102 41.7993H0.903767V50.9497C0.903767 51.3866 1.25793 51.7408 1.69479 51.7408C2.13164 51.7408 2.48581 51.3866 2.48581 50.9497V41.7993H5.4226V50.9497C5.4226 51.3866 5.77677 51.7408 6.21362 51.7408C6.65048 51.7408 7.00464 51.3866 7.00464 50.9497V37.3104C7.00464 36.6167 6.80119 35.9448 6.41644 35.3677L5.06432 33.3395C4.82195 32.976 4.33078 32.8779 3.96744 33.12C3.60389 33.3623 3.5057 33.8535 3.74806 34.217L5.10018 36.2453C5.31112 36.5617 5.42271 36.93 5.42271 37.3104V40.2173H1.69479H1.58204V32.1804C1.58204 31.3258 2.13196 30.5868 2.95061 30.3411L5.66613 29.5265C6.61177 33.486 10.2031 36.3767 14.3475 36.3767C15.8364 36.3767 17.2824 36.0096 18.5773 35.3109C19.0505 35.9565 19.8138 36.3767 20.6738 36.3767H20.7865V36.4895C20.7865 39.1413 22.2454 41.4574 24.4016 42.6818V43.972C24.4016 44.0205 24.3706 44.0635 24.3245 44.0789L21.3738 45.0625C19.9414 45.54 18.979 46.8752 18.979 48.3851V50.9497C18.979 51.3866 19.3332 51.7408 19.77 51.7408C20.2069 51.7408 20.561 51.3866 20.561 50.9497V48.3851C20.561 47.5573 21.0887 46.8251 21.874 46.5635L22.7417 46.2742C23.8897 47.9861 25.8203 49.0296 27.9038 49.0296C29.9896 49.0296 31.9184 47.9868 33.0661 46.2743L33.9336 46.5635C34.7189 46.8252 35.2466 47.5573 35.2466 48.3851V50.9497C35.2466 51.3866 35.6008 51.7408 36.0376 51.7408C36.4745 51.7408 36.8286 51.3866 36.8286 50.9497V48.3851C36.8286 46.8752 35.8662 45.54 34.4338 45.0626L31.4831 44.079C31.437 44.0636 31.406 44.0207 31.406 43.9721V42.6819C33.0205 41.7651 34.2424 40.2363 34.755 38.4124C36.2498 39.9765 38.3376 40.8958 40.5563 40.8958C44.0592 40.8958 47.1327 38.6314 48.1914 35.3346L51.2109 36.5423C51.9442 36.8356 52.418 37.5355 52.418 38.3252V42.0249H52.3052H49.4812V41.0084C49.4812 40.5715 49.127 40.2174 48.6901 40.2174C48.2533 40.2174 47.8991 40.5715 47.8991 41.0084V50.9498C47.8991 51.3867 48.2533 51.7409 48.6901 51.7409C49.127 51.7409 49.4812 51.3867 49.4812 50.9498V43.607H51.5142V50.9498C51.5142 51.3867 51.8684 51.7409 52.3052 51.7409C52.7421 51.7409 53.0962 51.3867 53.0962 50.9498V43.607H53.209C53.4188 43.607 53.6199 43.5236 53.7683 43.3753C53.9167 43.227 54 43.0258 54 42.8159V38.3252C54.0003 36.8847 53.1362 35.6083 51.7987 35.0733ZM31.4062 16.6067C31.4062 11.5611 35.5111 7.45628 40.5567 7.45628C45.6022 7.45628 49.707 11.5611 49.707 16.6067C49.707 21.9184 50.3466 27.288 50.5545 28.8917C49.8457 29.3554 48.0308 30.3768 44.9628 31.048V29.7892C45.3829 29.5511 45.7852 29.2793 46.1634 28.9736C47.7199 27.7155 48.8199 25.9534 49.2603 24.0121C49.4071 23.3653 49.4816 22.6982 49.4816 22.0294C49.4816 17.5584 46.2482 16.9166 43.1213 16.2958C41.1316 15.9008 39.0742 15.4923 37.4358 14.1816C37.1984 13.9917 36.8731 13.9547 36.599 14.0864C36.3249 14.2181 36.1507 14.4952 36.1507 14.7994C36.1507 14.8204 36.1162 16.9017 33.1348 17.647C32.7109 17.753 32.4532 18.1825 32.5592 18.6064C32.6651 19.0303 33.0947 19.2877 33.5185 19.1819C36.0139 18.5581 37.0319 17.1582 37.447 16.1065C39.1624 17.123 41.0839 17.5043 42.8132 17.8476C46.1554 18.5112 47.8995 18.9985 47.8995 22.0295C47.8995 22.5807 47.8383 23.13 47.7175 23.6622C47.3552 25.2583 46.4502 26.7077 45.1688 27.7434C43.8505 28.8091 42.2556 29.3723 40.5567 29.3723C39.008 29.3723 37.534 28.8973 36.2831 27.9996C35.8249 26.7488 35.0888 25.6045 34.1175 24.6616V21.1257C34.1175 20.8515 33.9756 20.5969 33.7424 20.4528C33.5092 20.3088 33.2181 20.2956 32.9728 20.4183L31.2649 21.2721C31.3586 19.6248 31.4062 18.0586 31.4062 16.6067ZM32.5355 22.4054V25.2682L29.6726 23.8368L32.5355 22.4054ZM23.2723 22.4054L26.1351 23.8368L23.2723 25.2682V22.4054ZM18.979 31.0669V31.8181C18.4126 32.3072 18.0752 33.0229 18.0752 33.7781C16.9486 34.4437 15.6687 34.7947 14.3474 34.7947C10.9066 34.7947 7.92971 32.3733 7.185 29.0709L9.13924 28.4845C9.62134 30.9196 11.773 32.7616 14.3475 32.7616C16.3918 32.7616 18.1688 31.5997 19.0558 29.9022C19.0051 30.2863 18.979 30.6753 18.979 31.0669ZM10.6197 27.4505V25.6182C11.7548 26.1424 13.0175 26.4353 14.3475 26.4353C15.6775 26.4353 16.9403 26.1423 18.0753 25.6183V27.4517C18.0753 29.5072 16.4031 31.1795 14.3475 31.1795C12.2954 31.1795 10.6255 29.5127 10.6199 27.4618C10.6199 27.458 10.6197 27.4542 10.6197 27.4505ZM14.3475 24.8532C10.2986 24.8532 7.00464 21.5593 7.00464 17.5105C7.00464 17.0736 6.65048 16.7194 6.21362 16.7194C5.65316 16.7194 5.19711 16.2634 5.19711 15.7029C5.19711 15.1425 5.65305 14.6864 6.21362 14.6864H8.02116C8.36161 14.6864 8.66389 14.4686 8.77157 14.1456L9.49762 11.9674C11.3154 11.9264 16.9505 11.6708 20.1238 10.0842C20.5145 9.88872 20.6729 9.41368 20.4775 9.02292C20.2822 8.63216 19.8071 8.47374 19.4163 8.66918C16.0116 10.3715 8.99517 10.3932 8.92471 10.3932C8.58426 10.3933 8.28198 10.6111 8.1744 10.9341L7.45099 13.1045H6.21362C6.17586 13.1045 6.13832 13.1057 6.10088 13.1073V9.37656C6.10088 6.32438 8.58405 3.84121 11.6362 3.84121H18.8664C19.8109 3.84121 20.6045 4.52201 20.7535 5.45985C20.7914 5.69821 20.936 5.90619 21.1462 6.02474C22.0393 6.52846 22.5942 7.4664 22.5942 8.47269V13.1071C22.5567 13.1054 22.5193 13.1043 22.4814 13.1043H21.5777C21.1408 13.1043 20.7866 13.4584 20.7866 13.8953C20.7866 14.3321 21.1408 14.6863 21.5777 14.6863H22.4814C23.0419 14.6863 23.4979 15.1423 23.4979 15.7028C23.4979 16.2634 23.042 16.7193 22.4814 16.7193C22.0446 16.7193 21.6904 17.0735 21.6904 17.5104C21.6904 21.5592 18.3965 24.8532 14.3475 24.8532ZM19.6573 27.4519V24.677C20.4442 24.0924 21.1319 23.3823 21.6903 22.5752V24.6615C20.8045 25.5215 20.114 26.5489 19.6517 27.6719C19.6547 27.5988 19.6573 27.5256 19.6573 27.4519ZM31.4877 45.748C30.6168 46.8119 29.3086 47.4474 27.9039 47.4474C26.501 47.4474 25.1919 46.8114 24.3207 45.7479L24.8249 45.5799C25.518 45.3489 25.9838 44.7027 25.9838 43.9721V43.3416C26.5951 43.5132 27.2386 43.607 27.904 43.607C28.5694 43.607 29.213 43.5132 29.8243 43.3416V43.9721C29.8242 44.7026 30.2899 45.3488 30.9831 45.5798L31.4877 45.748ZM34.2304 34.7947C33.7935 34.7947 33.4394 35.1488 33.4394 35.5857V36.3722C33.4394 36.379 33.4393 36.3859 33.4394 36.3927V36.4895C33.4393 39.5416 30.9561 42.0248 27.9039 42.0248C24.8517 42.0248 22.3687 39.5416 22.3687 36.4895V35.5857C22.3687 35.1488 22.0145 34.7947 21.5777 34.7947H20.6739C20.1134 34.7947 19.6574 34.3387 19.6574 33.7782C19.6574 33.4175 19.8483 33.091 20.168 32.905C20.2394 32.8634 20.3015 32.8108 20.3553 32.7513C22.3107 32.6947 28.6493 32.3267 32.8152 29.9461C33.1945 29.7294 33.3263 29.2462 33.1096 28.8669C32.8928 28.4875 32.4095 28.3558 32.0303 28.5725C28.3809 30.6578 22.6463 31.0754 20.5611 31.1588V31.0669C20.5611 29.5957 21.0067 28.1709 21.8139 26.9697C21.8771 27.0698 21.9616 27.1567 22.0656 27.2209C22.1927 27.2994 22.3368 27.339 22.4814 27.339C22.6023 27.339 22.7235 27.3113 22.8352 27.2555L27.904 24.7211L32.9729 27.2555C33.0846 27.3113 33.2058 27.339 33.3266 27.339C33.4713 27.339 33.6155 27.2994 33.7425 27.2209C33.8464 27.1567 33.9309 27.0697 33.994 26.9697C34.8013 28.1709 35.2468 29.5957 35.2468 31.0669V32.2213C35.2468 32.5029 35.3965 32.7633 35.64 32.905C35.9598 33.0911 36.1507 33.4175 36.1507 33.7782C36.1507 34.3386 35.6946 34.7947 35.1342 34.7947H34.2304V34.7947ZM40.5567 39.3135C38.3667 39.3135 36.3349 38.1986 35.1522 36.3763C36.5767 36.3665 37.7326 35.2049 37.7326 33.7783C37.7326 33.0231 37.3952 32.3073 36.8288 31.8182V31.067C36.8288 30.7486 36.8117 30.4319 36.778 30.1183C37.9509 30.6682 39.2315 30.9541 40.5567 30.9541C41.5212 30.9541 42.475 30.7943 43.3807 30.4923V31.6506C43.3807 32.7194 44.0219 33.6665 45.0141 34.0633L46.7199 34.7456C45.9024 37.4486 43.4059 39.3135 40.5567 39.3135Z" fill="white"/>
<path d="M30.211 37.6826C29.8717 37.4075 29.3735 37.4593 29.0984 37.7987C28.7787 38.1928 28.355 38.4097 27.9052 38.4097C27.4554 38.4097 27.0316 38.1928 26.712 37.7987C26.4369 37.4594 25.9386 37.4075 25.5994 37.6826C25.2601 37.9578 25.2081 38.4559 25.4833 38.7952C26.1001 39.5555 26.9828 39.9918 27.9052 39.9918C28.8276 39.9918 29.7103 39.5557 30.3271 38.7953C30.6022 38.456 30.5502 37.9578 30.211 37.6826Z" fill="white"/>
<path d="M25.207 35.4765C25.6439 35.4765 25.9981 35.1224 25.9981 34.6855C25.9981 34.2486 25.6439 33.8945 25.207 33.8945C24.7702 33.8945 24.416 34.2486 24.416 34.6855C24.416 35.1224 24.7702 35.4765 25.207 35.4765Z" fill="white"/>
<path d="M30.5859 35.4765C31.0228 35.4765 31.377 35.1224 31.377 34.6855C31.377 34.2486 31.0228 33.8945 30.5859 33.8945C30.1491 33.8945 29.7949 34.2486 29.7949 34.6855C29.7949 35.1224 30.1491 35.4765 30.5859 35.4765Z" fill="white"/>
</svg>
