<svg width="54" height="54" viewBox="0 0 54 54" fill="none" xmlns="http://www.w3.org/2000/svg">
<g clip-path="url(#clip0)">
<path d="M31.4999 35.9979H24.3003C23.8033 35.9979 23.4004 36.4008 23.4004 36.8978C23.4004 37.3949 23.8034 37.7978 24.3003 37.7978H31.4999C31.997 37.7978 32.3998 37.3949 32.3998 36.8978C32.3998 36.4008 31.997 35.9979 31.4999 35.9979Z" fill="white"/>
<path d="M27.898 12.5993C28.395 12.5993 28.7979 12.1965 28.7979 11.6994V9.89949C28.7979 9.40244 28.395 8.99957 27.898 8.99957C27.4009 8.99957 26.998 9.40255 26.998 9.89949V11.6994C26.998 12.1964 27.4009 12.5993 27.898 12.5993Z" fill="white"/>
<path d="M35.3016 15.7316C35.6122 15.8148 35.9435 15.726 36.1708 15.4987L37.4435 14.2261C37.6715 13.9989 37.7607 13.6672 37.6776 13.3563C37.5945 13.0454 37.3516 12.8025 37.0407 12.7194C36.7298 12.6363 36.3981 12.7256 36.1709 12.9536L34.8983 14.2262C34.6709 14.4535 34.5823 14.7848 34.6655 15.0954C34.7486 15.4058 34.991 15.6483 35.3016 15.7316Z" fill="white"/>
<path d="M48.5981 20.6989C48.1011 20.6989 47.6982 21.1017 47.6982 21.5988H38.6987C38.2017 21.5988 37.7988 22.0018 37.7988 22.4987C37.7988 22.9957 38.2017 23.3986 38.6987 23.3986H48.5982C48.8369 23.3987 49.0658 23.3039 49.2347 23.1351C49.4034 22.9663 49.4982 22.7374 49.4982 22.4986V21.5988C49.498 21.1017 49.0951 20.6989 48.5981 20.6989Z" fill="white"/>
<path d="M19.6268 15.4987C19.7954 15.6677 20.0244 15.7627 20.2632 15.7623C20.6271 15.7622 20.9552 15.543 21.0944 15.2068C21.2337 14.8706 21.1568 14.4835 20.8994 14.2262L19.6268 12.9536C19.2752 12.6032 18.7063 12.6036 18.3554 12.9546C18.0044 13.3056 18.0039 13.8745 18.3543 14.2261L19.6268 15.4987Z" fill="white"/>
<path d="M18.0005 22.4987C18.0005 22.0016 17.5975 21.5988 17.1005 21.5988H9.001C9.001 21.1017 8.59813 20.6989 8.10109 20.6989C7.60404 20.6989 7.20117 21.1017 7.20117 21.5988V22.4987C7.20107 22.7374 7.29588 22.9663 7.46472 23.1352C7.63346 23.3039 7.86242 23.3987 8.10119 23.3987H17.1006C17.5976 23.3987 18.0005 22.9957 18.0005 22.4987Z" fill="white"/>
<path d="M38.6632 25.1985H35.5281C36.6348 22.1049 35.7539 18.6491 33.3013 16.4627C30.5482 13.9825 26.4615 13.6907 23.3839 15.7546C20.3062 17.8185 19.025 21.71 20.2746 25.1985H17.2472C16.3037 25.2014 15.4291 25.6932 14.9367 26.4979C14.0883 27.7057 13.5911 29.125 13.5006 30.5982C13.5078 31.4603 13.6508 32.3158 13.9243 33.1332C14.0636 33.5199 14.148 33.9241 14.1747 34.3342C13.8606 34.8558 13.4735 35.3297 13.0252 35.7417C12.416 36.3423 11.8663 37.0002 11.3835 37.7064C10.7489 38.7583 11.0188 40.1202 12.0065 40.8506L12.8388 41.4741L12.765 41.6209C12.4801 42.1885 12.5913 42.8747 13.041 43.3233L13.3714 43.6532C13.1671 44.1146 13.2125 44.6484 13.4919 45.0687L13.9726 45.7897C14.0706 45.946 14.0777 46.1427 13.991 46.3056C13.7048 46.8906 13.6612 47.5651 13.8697 48.182C14.0938 48.7605 14.4994 49.2508 15.0254 49.5794C15.8346 50.1253 16.7914 50.4107 17.7674 50.3971H19.6025C20.5794 50.3967 21.4466 51.0221 21.7548 51.9492C22.1616 53.1727 23.3067 53.9979 24.5962 53.9969H35.9273C36.8393 54.0396 37.7147 53.634 38.2715 52.9106C38.8284 52.1871 38.9967 51.2371 38.722 50.3664C38.6237 49.9863 38.5093 49.59 38.3907 49.1821C37.9687 47.9503 37.7165 46.6668 37.6411 45.367C37.6411 43.6629 38.5656 42.2027 39.6361 40.5118C40.884 38.5401 42.299 36.3057 42.299 33.2982C42.3573 31.0959 41.9705 28.9045 41.1618 26.8552C40.7388 25.85 39.7538 25.1968 38.6632 25.1985ZM21.6793 21.4828C22.1471 18.7095 24.385 16.5753 27.1774 16.2395C27.4198 16.2124 27.6636 16.1988 27.9077 16.1986C29.4561 16.1937 30.9507 16.766 32.0998 17.8038C34.324 19.7868 34.8473 23.0605 33.3521 25.638L33.3461 25.6458C33.2203 25.8616 33.0826 26.0702 32.9339 26.2708L32.9207 26.2889C32.7859 26.4684 32.6411 26.6403 32.4872 26.8038C32.4665 26.8257 32.4487 26.8496 32.4278 26.8713C32.2787 27.0255 32.1374 27.1871 32.0045 27.3557C31.0335 28.4845 30.5301 29.9415 30.5971 31.4291C30.5971 31.5062 30.5871 31.5829 30.5673 31.6575C30.5613 31.7129 30.5504 31.7675 30.5343 31.8209C30.5044 31.8872 30.4666 31.9496 30.4216 32.0069C30.3989 32.0466 30.3734 32.0845 30.345 32.1205C30.2859 32.1763 30.2193 32.2236 30.1473 32.2614C30.1171 32.2848 30.0855 32.3061 30.0525 32.3254C29.941 32.3733 29.821 32.3979 29.6996 32.3982H26.0998C25.6028 32.3974 25.2001 31.9943 25.1999 31.4973C25.2297 29.7885 24.5835 28.137 23.4018 26.9022C23.0338 26.5244 22.7144 26.1022 22.4508 25.6454L22.4405 25.6321C21.7193 24.377 21.4505 22.9123 21.6793 21.4828ZM40.4991 33.2981C40.4991 35.7835 39.2871 37.6977 38.1156 39.549C36.9969 41.315 35.8411 43.1408 35.8411 45.367C35.9133 46.8368 36.1896 48.2894 36.6619 49.6831C36.7753 50.0737 36.8851 50.4538 36.9801 50.8172C37.0916 51.1548 37.04 51.525 36.8404 51.8191C36.6116 52.0807 36.2739 52.2205 35.9273 52.197H24.5962C24.0813 52.1972 23.6242 51.8677 23.4616 51.3792C22.9094 49.717 21.3541 48.5958 19.6025 48.5972H17.7674C17.1578 48.6099 16.5587 48.4364 16.0502 48.0998C15.6758 47.84 15.5914 47.6568 15.5756 47.6085C15.5194 47.4383 15.5317 47.253 15.6099 47.0918C15.9725 46.354 15.9194 45.4798 15.4701 44.7913L15.1379 44.2926L15.21 44.22C15.3791 44.0514 15.4744 43.8224 15.4745 43.5834C15.4747 43.3446 15.3798 43.1154 15.2108 42.9465L14.4796 42.2162L14.7846 41.6072C14.9789 41.2179 14.8672 40.7454 14.5192 40.4844L13.0866 39.4104C12.8466 39.2431 12.7697 38.9228 12.9073 38.6646C13.3275 38.061 13.8033 37.4979 14.3284 36.9829C15.2108 36.0571 15.9718 35.2578 15.9718 34.3666C15.9536 33.7711 15.8448 33.1819 15.6493 32.619C15.4266 31.9681 15.3089 31.2859 15.3004 30.598C15.3949 29.4553 15.8011 28.3604 16.4746 27.4323C16.6394 27.1634 16.9317 26.9991 17.2471 26.9981H21.1747C21.209 27.0494 21.2481 27.0955 21.2834 27.1458C21.3674 27.2648 21.4516 27.383 21.5426 27.4979C21.6682 27.6585 21.8006 27.8105 21.9363 27.9588C21.9762 28.0025 22.0099 28.0502 22.0509 28.0932C22.9247 29.0105 23.4083 30.231 23.3999 31.4978C23.4015 32.9882 24.6093 34.1961 26.0997 34.1977H29.6995C29.885 34.1975 30.0699 34.1782 30.2514 34.1401C30.2603 34.1382 30.2685 34.1339 30.2774 34.132C30.4452 34.0957 30.6092 34.0433 30.767 33.9756C30.8139 33.9553 30.8557 33.9255 30.9013 33.9027C31.0154 33.8486 31.1255 33.7867 31.2308 33.7172C31.2955 33.6728 31.3517 33.6175 31.4123 33.5673C31.4901 33.5066 31.5645 33.4416 31.6353 33.3727C31.6484 33.3591 31.6648 33.3495 31.6778 33.3356C31.7232 33.2866 31.7558 33.2285 31.7973 33.1766C31.8592 33.1026 31.9172 33.0254 31.9708 32.9453C32.0128 32.8792 32.0463 32.8098 32.0822 32.7404C32.1319 32.6488 32.1762 32.5546 32.2148 32.4578C32.2414 32.388 32.2601 32.3166 32.281 32.2449C32.3117 32.1439 32.3364 32.0412 32.3548 31.9372C32.3682 31.8564 32.3733 31.7756 32.3794 31.6937C32.3844 31.6279 32.3992 31.565 32.3992 31.498C32.3833 30.2521 32.8516 29.0487 33.7054 28.1412C33.721 28.1246 33.7386 28.1037 33.7535 28.0881C33.8669 27.9694 33.9737 27.8409 34.0806 27.7131C34.2753 27.4851 34.4572 27.2464 34.6257 26.9984H38.6629C39.0295 26.9974 39.3608 27.2168 39.5031 27.5547C40.2173 29.383 40.5559 31.3363 40.4991 33.2981Z" fill="white"/>
<path d="M14.4 17.099V9.89947C14.3979 9.25942 14.0549 8.66894 13.5001 8.35002V5.39969C13.4968 2.41889 11.0812 0.00326935 8.10039 0C5.11959 0.00326935 2.70396 2.41889 2.7007 5.39969V8.34991C2.14575 8.66894 1.80289 9.25932 1.80078 9.89937V17.099C1.80194 18.0926 2.60704 18.8978 3.60071 18.8989H12.6002C13.5936 18.8978 14.3988 18.0927 14.4 17.099ZM4.50052 5.39969C4.50052 3.41162 6.11221 1.79993 8.10028 1.79993C10.0884 1.79993 11.7 3.41162 11.7 5.39969V8.09954H4.50052V5.39969ZM3.60061 9.89947H12.6001V12.5993H3.60061V9.89947ZM3.60061 14.3992H12.6001V17.099H3.60061V14.3992Z" fill="white"/>
<path d="M49.4974 11.8271V1.79993C49.4962 0.806263 48.691 0.00116009 47.6974 0H44.9976C44.5005 0 44.0977 0.402868 44.0977 0.899914C44.0977 1.39696 44.5005 1.79983 44.9976 1.79983H47.6974V3.59976H45.8975C45.4004 3.59976 44.9976 4.00263 44.9976 4.49967C44.9976 4.99672 45.4004 5.39959 45.8975 5.39959H47.6974V11.827C45.8903 12.2977 44.7447 14.074 45.0614 15.9144C45.3781 17.7549 47.0515 19.0461 48.912 18.8856C50.7726 18.7252 52.2003 17.1666 52.1972 15.2991C52.1924 13.6622 51.0826 12.2352 49.4974 11.8271ZM48.5974 17.099C47.6033 17.099 46.7975 16.2932 46.7975 15.2991C46.7975 14.305 47.6033 13.4991 48.5974 13.4991C49.5915 13.4991 50.3974 14.305 50.3974 15.2991C50.3961 16.2927 49.591 17.0979 48.5974 17.099Z" fill="white"/>
</g>
<defs>
<clipPath id="clip0">
<rect width="54" height="54" fill="white"/>
</clipPath>
</defs>
</svg>
