<svg width="24" height="24" viewBox="0 0 24 24" fill="none" xmlns="http://www.w3.org/2000/svg">
<path fill-rule="evenodd" clip-rule="evenodd" d="M21.8968 0.0795977C21.6243 0.0740293 21.3534 0.125566 21.0996 0.231262C20.8458 0.336959 20.6141 0.494746 20.4177 0.695609C20.2213 0.896473 20.0641 1.13648 19.955 1.40191C19.8459 1.66735 19.7871 1.95302 19.782 2.2426C19.7792 2.4166 19.7989 2.5846 19.8314 2.7466L18.3392 4.3396C18.27 1.4791 16.2653 0.0375977 14.0742 0.0375977C12.2629 0.0375977 9.9434 1.7296 9.9434 4.7371C9.9434 5.9551 10.0013 10.4071 10.0013 10.4071H11.3961V15.7576L6.4634 10.4071H8.41023L8.35517 4.6111C8.35517 1.7296 9.64834 0.0375977 11.2945 0.0375977H5.6474C2.95658 0.0375977 1.41211 1.5886 1.41211 4.5946V10.4071H4.81446L11.3961 17.5051V24.0001H14.0022V10.4071H18.3533V6.2761L20.5203 3.9646C20.8705 4.2811 21.3138 4.4866 21.8107 4.4956C22.0832 4.50156 22.3542 4.45035 22.608 4.34489C22.8619 4.23943 23.0937 4.0818 23.2902 3.88101C23.4866 3.68023 23.6438 3.44025 23.7529 3.1748C23.8619 2.90936 23.9206 2.62367 23.9255 2.3341C23.9373 1.74948 23.7303 1.18378 23.3499 0.761127C22.9696 0.33847 22.447 0.0933683 21.8968 0.0795977V0.0795977ZM15.5905 4.7506H12.5905V3.0016H15.5905V4.7506Z" fill="white"/>
</svg>
