<svg width="189" height="214" viewBox="0 0 189 214" fill="none" xmlns="http://www.w3.org/2000/svg">
<rect y="25" width="189" height="189" rx="2" fill="#817E9F"/>
<path opacity="0.2" d="M79.025 70.35V115.675H158.405V147.525H79.025V210H39.335V38.5H168.94V70.35H79.025Z" fill="white"/>
<path d="M34.032 102.362V106.196H40.116V108.176H34.032V113H31.692V100.4H40.89V102.362H34.032ZM43.9629 100.4H46.3029V113H43.9629V100.4ZM54.859 107.726L52.861 109.778V113H50.521V100.4H52.861V106.862L59.089 100.4H61.717L56.425 106.034L62.041 113H59.305L54.859 107.726ZM64.4443 100.4H66.7843V113H64.4443V100.4ZM79.2463 113L76.6723 109.31C76.5643 109.322 76.4023 109.328 76.1863 109.328H73.3423V113H71.0023V100.4H76.1863C77.2783 100.4 78.2263 100.58 79.0303 100.94C79.8463 101.3 80.4703 101.816 80.9023 102.488C81.3343 103.16 81.5503 103.958 81.5503 104.882C81.5503 105.83 81.3163 106.646 80.8483 107.33C80.3923 108.014 79.7323 108.524 78.8683 108.86L81.7663 113H79.2463ZM79.1923 104.882C79.1923 104.078 78.9283 103.46 78.4003 103.028C77.8723 102.596 77.0983 102.38 76.0783 102.38H73.3423V107.402H76.0783C77.0983 107.402 77.8723 107.186 78.4003 106.754C78.9283 106.31 79.1923 105.686 79.1923 104.882ZM90.7629 100.4H93.1029V111.02H99.6909V113H90.7629V100.4ZM111.798 111.038V113H102.348V100.4H111.546V102.362H104.688V105.638H110.772V107.564H104.688V111.038H111.798ZM123.768 106.556H125.982V111.578C125.334 112.094 124.578 112.49 123.714 112.766C122.85 113.042 121.962 113.18 121.05 113.18C119.766 113.18 118.608 112.904 117.576 112.352C116.544 111.788 115.734 111.014 115.146 110.03C114.558 109.046 114.264 107.936 114.264 106.7C114.264 105.464 114.558 104.354 115.146 103.37C115.734 102.386 116.544 101.618 117.576 101.066C118.62 100.502 119.79 100.22 121.086 100.22C122.142 100.22 123.102 100.394 123.966 100.742C124.83 101.09 125.556 101.6 126.144 102.272L124.668 103.712C123.708 102.752 122.55 102.272 121.194 102.272C120.306 102.272 119.514 102.458 118.818 102.83C118.134 103.202 117.594 103.724 117.198 104.396C116.814 105.068 116.622 105.836 116.622 106.7C116.622 107.54 116.814 108.296 117.198 108.968C117.594 109.64 118.134 110.168 118.818 110.552C119.514 110.936 120.3 111.128 121.176 111.128C122.16 111.128 123.024 110.912 123.768 110.48V106.556ZM138.05 110.084H131.75L130.508 113H128.096L133.766 100.4H136.07L141.758 113H139.31L138.05 110.084ZM137.276 108.248L134.9 102.74L132.542 108.248H137.276ZM144.171 100.4H146.511V111.02H153.099V113H144.171V100.4ZM35.598 141.18C34.626 141.18 33.684 141.042 32.772 140.766C31.872 140.49 31.158 140.124 30.63 139.668L31.44 137.85C31.956 138.258 32.586 138.594 33.33 138.858C34.086 139.11 34.842 139.236 35.598 139.236C36.534 139.236 37.23 139.086 37.686 138.786C38.154 138.486 38.388 138.09 38.388 137.598C38.388 137.238 38.256 136.944 37.992 136.716C37.74 136.476 37.416 136.29 37.02 136.158C36.624 136.026 36.084 135.876 35.4 135.708C34.44 135.48 33.66 135.252 33.06 135.024C32.472 134.796 31.962 134.442 31.53 133.962C31.11 133.47 30.9 132.81 30.9 131.982C30.9 131.286 31.086 130.656 31.458 130.092C31.842 129.516 32.412 129.06 33.168 128.724C33.936 128.388 34.872 128.22 35.976 128.22C36.744 128.22 37.5 128.316 38.244 128.508C38.988 128.7 39.63 128.976 40.17 129.336L39.432 131.154C38.88 130.83 38.304 130.584 37.704 130.416C37.104 130.248 36.522 130.164 35.958 130.164C35.034 130.164 34.344 130.32 33.888 130.632C33.444 130.944 33.222 131.358 33.222 131.874C33.222 132.234 33.348 132.528 33.6 132.756C33.864 132.984 34.194 133.164 34.59 133.296C34.986 133.428 35.526 133.578 36.21 133.746C37.146 133.962 37.914 134.19 38.514 134.43C39.114 134.658 39.624 135.012 40.044 135.492C40.476 135.972 40.692 136.62 40.692 137.436C40.692 138.132 40.5 138.762 40.116 139.326C39.744 139.89 39.174 140.34 38.406 140.676C37.638 141.012 36.702 141.18 35.598 141.18ZM53.2723 139.038V141H43.8223V128.4H53.0203V130.362H46.1623V133.638H52.2463V135.564H46.1623V139.038H53.2723ZM64.9349 141L62.3609 137.31C62.2529 137.322 62.0909 137.328 61.8749 137.328H59.0309V141H56.6909V128.4H61.8749C62.9669 128.4 63.9149 128.58 64.7189 128.94C65.5349 129.3 66.1589 129.816 66.5909 130.488C67.0229 131.16 67.2389 131.958 67.2389 132.882C67.2389 133.83 67.0049 134.646 66.5369 135.33C66.0809 136.014 65.4209 136.524 64.5569 136.86L67.4549 141H64.9349ZM64.8809 132.882C64.8809 132.078 64.6169 131.46 64.0889 131.028C63.5609 130.596 62.7869 130.38 61.7669 130.38H59.0309V135.402H61.7669C62.7869 135.402 63.5609 135.186 64.0889 134.754C64.6169 134.31 64.8809 133.686 64.8809 132.882ZM82.1869 128.4L76.6969 141H74.3929L68.8849 128.4H71.4229L75.6169 138.12L79.8469 128.4H82.1869ZM84.3265 128.4H86.6665V141H84.3265V128.4ZM96.7166 141.18C95.4446 141.18 94.2926 140.904 93.2606 140.352C92.2406 139.788 91.4366 139.014 90.8486 138.03C90.2726 137.046 89.9846 135.936 89.9846 134.7C89.9846 133.464 90.2786 132.354 90.8666 131.37C91.4546 130.386 92.2586 129.618 93.2786 129.066C94.3106 128.502 95.4626 128.22 96.7346 128.22C97.7666 128.22 98.7086 128.4 99.5606 128.76C100.413 129.12 101.133 129.642 101.721 130.326L100.209 131.748C99.2966 130.764 98.1746 130.272 96.8426 130.272C95.9786 130.272 95.2046 130.464 94.5206 130.848C93.8366 131.22 93.3026 131.742 92.9186 132.414C92.5346 133.086 92.3426 133.848 92.3426 134.7C92.3426 135.552 92.5346 136.314 92.9186 136.986C93.3026 137.658 93.8366 138.186 94.5206 138.57C95.2046 138.942 95.9786 139.128 96.8426 139.128C98.1746 139.128 99.2966 138.63 100.209 137.634L101.721 139.074C101.133 139.758 100.407 140.28 99.5426 140.64C98.6906 141 97.7486 141.18 96.7166 141.18ZM114.223 139.038V141H104.773V128.4H113.971V130.362H107.113V133.638H113.197V135.564H107.113V139.038H114.223Z" fill="white"/>
</svg>
