<svg width="54" height="54" viewBox="0 0 54 54" fill="none" xmlns="http://www.w3.org/2000/svg">
<g clip-path="url(#clip0)">
<path d="M11.0593 43.6611C10.6237 42.7201 9.84777 42.0051 8.8744 41.6477C6.86501 40.91 4.63003 41.9443 3.89228 43.9538C3.53484 44.9271 3.57798 45.9815 4.01357 46.9225C4.44915 47.8635 5.22508 48.5786 6.19845 48.9359C6.63836 49.0975 7.08903 49.174 7.53252 49.174C9.11455 49.174 10.6044 48.1993 11.1806 46.6298C11.538 45.6565 11.4949 44.6021 11.0593 43.6611ZM9.74989 46.1046C9.30176 47.3252 7.94406 47.9533 6.72358 47.5054C6.13232 47.2884 5.66098 46.854 5.39647 46.2824C5.13195 45.7108 5.1058 45.0704 5.32285 44.4791C5.53991 43.8879 5.97423 43.4165 6.54586 43.152C6.86132 43.0059 7.19756 42.9325 7.53505 42.9325C7.80917 42.9325 8.08412 42.981 8.34906 43.0783C8.94032 43.2953 9.41166 43.7298 9.67617 44.3013C9.9409 44.8729 9.96705 45.5133 9.74989 46.1046Z" fill="black"/>
<path d="M53.238 26.2288C53.6588 26.2288 54 25.8877 54 25.4667V8.8081C54 7.70785 53.105 6.81284 52.0048 6.81284H29.5874C29.7352 5.82112 29.5886 4.80799 29.1509 3.87902C28.5607 2.62627 27.5161 1.68338 26.2099 1.22375C25.8178 1.08601 25.3879 1.28735 25.243 1.67663L23.3304 6.81284H12.1831L10.2705 1.67653C10.1256 1.28724 9.69541 1.08601 9.30359 1.22364C7.99726 1.68317 6.95291 2.62627 6.3626 3.87902C5.92491 4.80789 5.77841 5.82102 5.92607 6.81284H4.35279C3.25265 6.81284 2.35754 7.70785 2.35754 8.8081V32.6262C2.35754 33.7264 3.25255 34.6214 4.35279 34.6214H12.9754L11.4082 38.8299C10.9242 38.5398 10.4088 38.3051 9.86732 38.1288C6.10769 36.9046 2.01308 38.82 0.545169 42.4899C-0.217157 44.3957 -0.178872 46.4765 0.652958 48.3491C1.485 50.2224 3.00174 51.6457 4.92359 52.3566C5.75943 52.6657 6.62838 52.8196 7.49755 52.8196C8.56837 52.8195 9.6393 52.5859 10.6465 52.121C12.5156 51.2586 13.936 49.7187 14.6459 47.7853L17.7566 39.3203L20.8673 47.7852C21.5772 49.7187 22.9975 51.2586 24.8665 52.121C25.874 52.5858 26.9447 52.8196 28.0156 52.8196C28.8846 52.8196 29.7538 52.6657 30.5896 52.3566C32.5115 51.6457 34.0282 50.2225 34.8603 48.3492C35.6921 46.4766 35.7304 44.3958 34.9681 42.49C33.5002 38.8201 29.4051 36.9047 25.6459 38.1289C25.1045 38.3052 24.589 38.5399 24.105 38.83L22.5379 34.6215H52.0046C53.1048 34.6215 53.9999 33.7265 53.9999 32.6263V30.3184C53.9999 29.8975 53.6587 29.5564 53.2379 29.5564C52.8171 29.5564 52.4759 29.8975 52.4759 30.3184V32.6263C52.4759 32.8861 52.2645 33.0975 52.0046 33.0975H20.0435L29.1424 8.33686H52.0046C52.2645 8.33686 52.4759 8.54833 52.4759 8.8081V25.4669C52.476 25.8877 52.8172 26.2288 53.238 26.2288ZM7.74118 4.5285C8.04799 3.87744 8.52914 3.34535 9.1302 2.98159L10.5569 6.81274H7.47371C7.31013 6.04588 7.40084 5.25096 7.74118 4.5285ZM4.35279 33.0973C4.09292 33.0974 3.88156 32.8859 3.88156 32.6262V8.8081C3.88156 8.54822 4.09292 8.33686 4.35279 8.33686H16.5916V10.3669C16.5916 10.7878 16.9328 11.1289 17.3536 11.1289C17.7744 11.1289 18.1156 10.7878 18.1156 10.3669V8.33676H22.763L18.1155 20.8174V15.157C18.1155 14.7361 17.7743 14.395 17.3535 14.395C16.9327 14.395 16.5915 14.7361 16.5915 15.157V24.9101L13.5428 33.0973H4.35279ZM20.9119 34.6214V34.6213L23.0196 40.2815C23.105 40.5109 23.2954 40.6853 23.5314 40.7503C23.7674 40.8148 24.0203 40.7629 24.211 40.6095C24.781 40.1513 25.4226 39.8042 26.118 39.5778C29.1166 38.6013 32.3825 40.129 33.5533 43.0557C34.1617 44.5766 34.1312 46.2367 33.4678 47.7304C32.804 49.2248 31.5942 50.3601 30.0611 50.9271C28.5778 51.4757 26.9598 51.4082 25.5053 50.7371C24.0064 50.0456 22.8675 48.8106 22.298 47.2596L18.5686 37.1111L19.4835 34.6214H20.9119ZM27.8955 7.31192L13.2155 47.2598C12.6461 48.8107 11.507 50.0457 10.0082 50.7372C8.5535 51.4085 6.93561 51.4759 5.45252 50.9272C3.91953 50.3602 2.70959 49.2248 2.04588 47.7304C1.38238 46.2367 1.352 44.5766 1.96035 43.0557C2.89206 40.7265 5.15066 39.2834 7.54564 39.2834C8.16 39.2834 8.78342 39.3784 9.39567 39.5778C10.0911 39.8042 10.7327 40.1513 11.3025 40.6095C11.4933 40.7627 11.7461 40.815 11.9822 40.7503C12.2182 40.6853 12.4087 40.5109 12.494 40.2815L14.7864 34.1255C14.7864 34.1254 14.7865 34.1253 14.7865 34.1253L26.3833 2.98159C26.9843 3.34535 27.4656 3.87744 27.7723 4.5285C28.1873 5.40937 28.2311 6.39793 27.8955 7.31192Z" fill="black"/>
<path d="M31.6201 43.9538C30.8823 41.9443 28.6474 40.9096 26.6379 41.6478C24.6286 42.3856 23.5941 44.6206 24.3318 46.6299C24.9082 48.1995 26.3977 49.1741 27.98 49.1741C28.4234 49.1741 28.8743 49.0975 29.3141 48.936C30.2874 48.5785 31.0635 47.8635 31.4989 46.9226C31.9345 45.9816 31.9776 44.9272 31.6201 43.9538ZM30.1158 46.2825C29.8513 46.8541 29.38 47.2884 28.7887 47.5055C27.5681 47.9532 26.2106 47.3251 25.7624 46.1046C25.3144 44.8842 25.9428 43.5266 27.1632 43.0783C27.4305 42.9804 27.7042 42.9337 27.9736 42.9337C28.9346 42.9337 29.8394 43.5258 30.1894 44.4792C30.4066 45.0704 30.3804 45.7108 30.1158 46.2825Z" fill="black"/>
<path d="M11.1026 19.9659V16.4533C12.3139 16.5398 12.7638 17.0935 13.179 17.0935C13.6982 17.0935 13.9404 16.4359 13.9404 16.1071C13.9404 15.2593 12.2793 14.8958 11.1026 14.8612V14.394C11.1026 14.1863 10.843 13.996 10.5835 13.996C10.2893 13.996 10.0816 14.1863 10.0816 14.394V14.8958C8.43781 15.069 6.79398 15.9341 6.79398 18.1144C6.79398 20.3293 8.52429 20.9523 10.0816 21.506V25.5723C8.31662 25.4339 7.8494 24.2226 7.27839 24.2226C6.84576 24.2226 6.48242 24.7936 6.48242 25.209C6.48242 26.0568 7.93599 27.2162 10.0816 27.2508V27.7872C10.0816 27.9949 10.2893 28.1853 10.5835 28.1853C10.843 28.1853 11.1026 27.9949 11.1026 27.7872V27.1989C12.9714 26.9394 14.2519 25.7627 14.2519 23.6343C14.2519 21.281 12.608 20.5196 11.1026 19.9659ZM10.1855 19.6371C9.26837 19.291 8.52429 18.9277 8.5244 17.9412C8.5244 17.0415 9.21648 16.6088 10.1855 16.4878V19.6371ZM10.9988 25.5377V21.8866C11.8467 22.2499 12.5216 22.7345 12.5216 23.8246C12.5216 24.8109 11.9332 25.3646 10.9988 25.5377Z" fill="black"/>
<path d="M31.9902 17.2197H27.4996C27.1716 17.2197 27 17.5419 27 17.86C27 18.2373 27.2101 18.5111 27.4996 18.5111H29.0559V24.8717C29.0559 25.1659 29.3415 25.3714 29.7503 25.3714C30.0954 25.3714 30.4448 25.1998 30.4448 24.8717V18.5111H31.9902C32.2844 18.5111 32.49 18.2389 32.49 17.8491C32.49 17.5459 32.3335 17.2197 31.9902 17.2197Z" fill="black"/>
<path d="M40.6779 24.6419L38.5343 17.627C38.4386 17.3401 38.1047 17.1547 37.6838 17.1547C37.2693 17.1547 36.9397 17.3401 36.8432 17.6297L34.6909 24.6387C34.6738 24.6899 34.6738 24.7367 34.6738 24.7745C34.6738 25.1264 35.1139 25.3715 35.5089 25.3715C35.8518 25.3715 35.9787 25.1959 36.0255 25.046L36.4439 23.597H38.9348L39.3539 25.0487C39.4191 25.2569 39.5984 25.3715 39.859 25.3715C40.2583 25.3715 40.7048 25.1162 40.7048 24.7745C40.7048 24.7225 40.6894 24.6762 40.6779 24.6419ZM36.7629 22.4352L37.6838 19.2768L38.6046 22.4352H36.7629Z" fill="black"/>
<path d="M49.6048 24.432L47.768 21.2895L49.552 18.1677C49.6195 18.0461 49.6538 17.9317 49.6538 17.8276C49.6538 17.4502 49.2137 17.1873 48.8187 17.1873C48.5886 17.1873 48.396 17.3272 48.2798 17.5749L46.8717 20.1496L45.4845 17.5763C45.3144 17.2548 45.0971 17.1874 44.9449 17.1874C44.5447 17.1874 44.0989 17.4504 44.0989 17.8277C44.0989 17.9317 44.1332 18.0462 44.2014 18.1691L45.9847 21.2896L44.1441 24.4392C44.0919 24.5438 44.0664 24.6358 44.0664 24.7205C44.0664 25.0992 44.5351 25.4041 44.9232 25.4041C45.1048 25.4041 45.277 25.2876 45.3971 25.0817L46.8717 22.3952L48.3643 25.0776C48.4432 25.2355 48.6069 25.4041 48.8295 25.4041C49.2307 25.4041 49.6971 25.1054 49.6971 24.7205C49.6971 24.6336 49.6617 24.5452 49.6048 24.432Z" fill="black"/>
</g>
<defs>
<clipPath id="clip0">
<rect width="54" height="54" fill="white"/>
</clipPath>
</defs>
</svg>
