<svg width="412" height="413" viewBox="0 0 412 413" fill="none" xmlns="http://www.w3.org/2000/svg">
<path d="M412 413V0H0L412 413Z" fill="#490048"/>
<g opacity="0.3">
<mask id="mask0" style="mask-type:alpha" maskUnits="userSpaceOnUse" x="56" y="83" width="336" height="306">
<circle cx="117.187" cy="87.2687" r="4.26871" fill="#817E9F"/>
<circle cx="131.419" cy="87.2687" r="4.26871" fill="#817E9F"/>
<circle cx="145.646" cy="87.2687" r="4.26871" fill="#817E9F"/>
<circle cx="159.876" cy="87.2687" r="4.26871" fill="#817E9F"/>
<circle cx="60.2687" cy="87.2687" r="4.26871" fill="#817E9F"/>
<circle cx="74.5011" cy="87.2687" r="4.26871" fill="#817E9F"/>
<circle cx="88.7297" cy="87.2687" r="4.26871" fill="#817E9F"/>
<circle cx="102.956" cy="87.2687" r="4.26871" fill="#817E9F"/>
<circle cx="174.101" cy="87.2687" r="4.26871" fill="#817E9F"/>
<circle cx="188.331" cy="87.2687" r="4.26871" fill="#817E9F"/>
<circle cx="202.564" cy="87.2687" r="4.26871" fill="#817E9F"/>
<circle cx="216.79" cy="87.2687" r="4.26871" fill="#817E9F"/>
<circle cx="231.019" cy="87.2687" r="4.26871" fill="#817E9F"/>
<circle cx="245.247" cy="87.2687" r="4.26871" fill="#817E9F"/>
<circle cx="259.474" cy="87.2687" r="4.26871" fill="#817E9F"/>
<circle cx="273.708" cy="87.2687" r="4.26871" fill="#817E9F"/>
<circle cx="287.935" cy="87.2687" r="4.26871" fill="#817E9F"/>
<circle cx="302.165" cy="87.2687" r="4.26871" fill="#817E9F"/>
<circle cx="316.394" cy="87.2687" r="4.26871" fill="#817E9F"/>
<circle cx="330.626" cy="87.2687" r="4.26871" fill="#817E9F"/>
<circle cx="117.187" cy="102.921" r="4.26871" fill="#817E9F"/>
<circle cx="131.419" cy="102.921" r="4.26871" fill="#817E9F"/>
<circle cx="145.646" cy="102.921" r="4.26871" fill="#817E9F"/>
<circle cx="159.876" cy="102.921" r="4.26871" fill="#817E9F"/>
<circle cx="344.853" cy="87.2687" r="4.26871" fill="#817E9F"/>
<circle cx="359.081" cy="87.2687" r="4.26871" fill="#817E9F"/>
<circle cx="373.31" cy="87.2687" r="4.26871" fill="#817E9F"/>
<circle cx="387.538" cy="87.2687" r="4.26871" fill="#817E9F"/>
<circle cx="60.2687" cy="102.921" r="4.26871" fill="#817E9F"/>
<circle cx="74.5011" cy="102.921" r="4.26871" fill="#817E9F"/>
<circle cx="88.7297" cy="102.921" r="4.26871" fill="#817E9F"/>
<circle cx="102.956" cy="102.921" r="4.26871" fill="#817E9F"/>
<circle cx="174.101" cy="102.921" r="4.26871" fill="#817E9F"/>
<circle cx="188.331" cy="102.921" r="4.26871" fill="#817E9F"/>
<circle cx="202.564" cy="102.921" r="4.26871" fill="#817E9F"/>
<circle cx="216.79" cy="102.921" r="4.26871" fill="#817E9F"/>
<circle cx="231.019" cy="102.921" r="4.26871" fill="#817E9F"/>
<circle cx="245.247" cy="102.921" r="4.26871" fill="#817E9F"/>
<circle cx="259.474" cy="102.921" r="4.26871" fill="#817E9F"/>
<circle cx="273.708" cy="102.921" r="4.26871" fill="#817E9F"/>
<circle cx="117.187" cy="118.573" r="4.26871" fill="#817E9F"/>
<circle cx="131.419" cy="118.573" r="4.26871" fill="#817E9F"/>
<circle cx="145.646" cy="118.573" r="4.26871" fill="#817E9F"/>
<circle cx="159.876" cy="118.573" r="4.26871" fill="#817E9F"/>
<circle cx="287.935" cy="102.921" r="4.26871" fill="#817E9F"/>
<circle cx="302.165" cy="102.921" r="4.26871" fill="#817E9F"/>
<circle cx="316.394" cy="102.921" r="4.26871" fill="#817E9F"/>
<circle cx="330.626" cy="102.921" r="4.26871" fill="#817E9F"/>
<circle cx="344.853" cy="102.921" r="4.26871" fill="#817E9F"/>
<circle cx="359.081" cy="102.921" r="4.26871" fill="#817E9F"/>
<circle cx="373.31" cy="102.921" r="4.26871" fill="#817E9F"/>
<circle cx="387.538" cy="102.921" r="4.26871" fill="#817E9F"/>
<circle cx="60.2687" cy="118.573" r="4.26871" fill="#817E9F"/>
<circle cx="74.5011" cy="118.573" r="4.26871" fill="#817E9F"/>
<circle cx="88.7297" cy="118.573" r="4.26871" fill="#817E9F"/>
<circle cx="102.956" cy="118.573" r="4.26871" fill="#817E9F"/>
<circle cx="174.101" cy="118.573" r="4.26871" fill="#817E9F"/>
<circle cx="188.331" cy="118.573" r="4.26871" fill="#817E9F"/>
<circle cx="202.564" cy="118.573" r="4.26871" fill="#817E9F"/>
<circle cx="216.79" cy="118.573" r="4.26871" fill="#817E9F"/>
<circle cx="117.187" cy="134.225" r="4.26871" fill="#817E9F"/>
<circle cx="131.419" cy="134.225" r="4.26871" fill="#817E9F"/>
<circle cx="145.646" cy="134.225" r="4.26871" fill="#817E9F"/>
<circle cx="159.876" cy="134.225" r="4.26871" fill="#817E9F"/>
<circle cx="231.019" cy="118.573" r="4.26871" fill="#817E9F"/>
<circle cx="245.247" cy="118.573" r="4.26871" fill="#817E9F"/>
<circle cx="259.474" cy="118.573" r="4.26871" fill="#817E9F"/>
<circle cx="273.708" cy="118.573" r="4.26871" fill="#817E9F"/>
<circle cx="287.935" cy="118.573" r="4.26871" fill="#817E9F"/>
<circle cx="302.165" cy="118.573" r="4.26871" fill="#817E9F"/>
<circle cx="316.394" cy="118.573" r="4.26871" fill="#817E9F"/>
<circle cx="330.626" cy="118.573" r="4.26871" fill="#817E9F"/>
<circle cx="344.853" cy="118.573" r="4.26871" fill="#817E9F"/>
<circle cx="359.081" cy="118.573" r="4.26871" fill="#817E9F"/>
<circle cx="373.31" cy="118.573" r="4.26871" fill="#817E9F"/>
<circle cx="387.538" cy="118.573" r="4.26871" fill="#817E9F"/>
<circle cx="60.2687" cy="134.225" r="4.26871" fill="#817E9F"/>
<circle cx="74.5011" cy="134.225" r="4.26871" fill="#817E9F"/>
<circle cx="88.7297" cy="134.225" r="4.26871" fill="#817E9F"/>
<circle cx="102.956" cy="134.225" r="4.26871" fill="#817E9F"/>
<circle cx="117.187" cy="149.876" r="4.26871" fill="#817E9F"/>
<circle cx="131.419" cy="149.876" r="4.26871" fill="#817E9F"/>
<circle cx="145.646" cy="149.876" r="4.26871" fill="#817E9F"/>
<circle cx="159.876" cy="149.876" r="4.26871" fill="#817E9F"/>
<circle cx="174.101" cy="134.225" r="4.26871" fill="#817E9F"/>
<circle cx="188.331" cy="134.225" r="4.26871" fill="#817E9F"/>
<circle cx="202.564" cy="134.225" r="4.26871" fill="#817E9F"/>
<circle cx="216.79" cy="134.225" r="4.26871" fill="#817E9F"/>
<circle cx="231.019" cy="134.225" r="4.26871" fill="#817E9F"/>
<circle cx="245.247" cy="134.225" r="4.26871" fill="#817E9F"/>
<circle cx="259.474" cy="134.225" r="4.26871" fill="#817E9F"/>
<circle cx="273.708" cy="134.225" r="4.26871" fill="#817E9F"/>
<circle cx="287.935" cy="134.225" r="4.26871" fill="#817E9F"/>
<circle cx="302.165" cy="134.225" r="4.26871" fill="#817E9F"/>
<circle cx="316.394" cy="134.225" r="4.26871" fill="#817E9F"/>
<circle cx="330.626" cy="134.225" r="4.26871" fill="#817E9F"/>
<circle cx="344.853" cy="134.225" r="4.26871" fill="#817E9F"/>
<circle cx="359.081" cy="134.225" r="4.26871" fill="#817E9F"/>
<circle cx="373.31" cy="134.225" r="4.26871" fill="#817E9F"/>
<circle cx="387.538" cy="134.225" r="4.26871" fill="#817E9F"/>
<circle cx="117.187" cy="165.528" r="4.26871" fill="#817E9F"/>
<circle cx="131.419" cy="165.528" r="4.26871" fill="#817E9F"/>
<circle cx="145.646" cy="165.528" r="4.26871" fill="#817E9F"/>
<circle cx="159.876" cy="165.528" r="4.26871" fill="#817E9F"/>
<circle cx="60.2687" cy="149.876" r="4.26871" fill="#817E9F"/>
<circle cx="74.5011" cy="149.876" r="4.26871" fill="#817E9F"/>
<circle cx="88.7297" cy="149.876" r="4.26871" fill="#817E9F"/>
<circle cx="102.956" cy="149.876" r="4.26871" fill="#817E9F"/>
<circle cx="174.101" cy="149.876" r="4.26871" fill="#817E9F"/>
<circle cx="188.331" cy="149.876" r="4.26871" fill="#817E9F"/>
<circle cx="202.564" cy="149.876" r="4.26871" fill="#817E9F"/>
<circle cx="216.79" cy="149.876" r="4.26871" fill="#817E9F"/>
<circle cx="231.019" cy="149.876" r="4.26871" fill="#817E9F"/>
<circle cx="245.247" cy="149.876" r="4.26871" fill="#817E9F"/>
<circle cx="259.474" cy="149.876" r="4.26871" fill="#817E9F"/>
<circle cx="273.708" cy="149.876" r="4.26871" fill="#817E9F"/>
<circle cx="287.935" cy="149.876" r="4.26871" fill="#817E9F"/>
<circle cx="302.165" cy="149.876" r="4.26871" fill="#817E9F"/>
<circle cx="316.394" cy="149.876" r="4.26871" fill="#817E9F"/>
<circle cx="330.626" cy="149.876" r="4.26871" fill="#817E9F"/>
<circle cx="117.187" cy="181.18" r="4.26871" fill="#817E9F"/>
<circle cx="131.419" cy="181.18" r="4.26871" fill="#817E9F"/>
<circle cx="145.646" cy="181.18" r="4.26871" fill="#817E9F"/>
<circle cx="159.876" cy="181.18" r="4.26871" fill="#817E9F"/>
<circle cx="344.853" cy="149.876" r="4.26871" fill="#817E9F"/>
<circle cx="359.081" cy="149.876" r="4.26871" fill="#817E9F"/>
<circle cx="373.31" cy="149.876" r="4.26871" fill="#817E9F"/>
<circle cx="387.538" cy="149.876" r="4.26871" fill="#817E9F"/>
<circle cx="60.2687" cy="165.528" r="4.26871" fill="#817E9F"/>
<circle cx="74.5011" cy="165.528" r="4.26871" fill="#817E9F"/>
<circle cx="88.7297" cy="165.528" r="4.26871" fill="#817E9F"/>
<circle cx="102.956" cy="165.528" r="4.26871" fill="#817E9F"/>
<circle cx="174.101" cy="165.528" r="4.26871" fill="#817E9F"/>
<circle cx="188.331" cy="165.528" r="4.26871" fill="#817E9F"/>
<circle cx="202.564" cy="165.528" r="4.26871" fill="#817E9F"/>
<circle cx="216.79" cy="165.528" r="4.26871" fill="#817E9F"/>
<circle cx="231.019" cy="165.528" r="4.26871" fill="#817E9F"/>
<circle cx="245.247" cy="165.528" r="4.26871" fill="#817E9F"/>
<circle cx="259.474" cy="165.528" r="4.26871" fill="#817E9F"/>
<circle cx="273.708" cy="165.528" r="4.26871" fill="#817E9F"/>
<circle cx="117.187" cy="196.832" r="4.26871" fill="#817E9F"/>
<circle cx="131.419" cy="196.832" r="4.26871" fill="#817E9F"/>
<circle cx="145.646" cy="196.832" r="4.26871" fill="#817E9F"/>
<circle cx="159.876" cy="196.832" r="4.26871" fill="#817E9F"/>
<circle cx="287.935" cy="165.528" r="4.26871" fill="#817E9F"/>
<circle cx="302.165" cy="165.528" r="4.26871" fill="#817E9F"/>
<circle cx="316.394" cy="165.528" r="4.26871" fill="#817E9F"/>
<circle cx="330.626" cy="165.528" r="4.26871" fill="#817E9F"/>
<circle cx="344.853" cy="165.528" r="4.26871" fill="#817E9F"/>
<circle cx="359.081" cy="165.528" r="4.26871" fill="#817E9F"/>
<circle cx="373.31" cy="165.528" r="4.26871" fill="#817E9F"/>
<circle cx="387.538" cy="165.528" r="4.26871" fill="#817E9F"/>
<circle cx="60.2687" cy="181.18" r="4.26871" fill="#817E9F"/>
<circle cx="74.5011" cy="181.18" r="4.26871" fill="#817E9F"/>
<circle cx="88.7297" cy="181.18" r="4.26871" fill="#817E9F"/>
<circle cx="102.956" cy="181.18" r="4.26871" fill="#817E9F"/>
<circle cx="174.101" cy="181.18" r="4.26871" fill="#817E9F"/>
<circle cx="188.331" cy="181.18" r="4.26871" fill="#817E9F"/>
<circle cx="202.564" cy="181.18" r="4.26871" fill="#817E9F"/>
<circle cx="216.79" cy="181.18" r="4.26871" fill="#817E9F"/>
<circle cx="117.187" cy="212.484" r="4.26871" fill="#817E9F"/>
<circle cx="131.419" cy="212.484" r="4.26871" fill="#817E9F"/>
<circle cx="145.646" cy="212.484" r="4.26871" fill="#817E9F"/>
<circle cx="159.876" cy="212.484" r="4.26871" fill="#817E9F"/>
<circle cx="231.019" cy="181.18" r="4.26871" fill="#817E9F"/>
<circle cx="245.247" cy="181.18" r="4.26871" fill="#817E9F"/>
<circle cx="259.474" cy="181.18" r="4.26871" fill="#817E9F"/>
<circle cx="273.708" cy="181.18" r="4.26871" fill="#817E9F"/>
<circle cx="287.935" cy="181.18" r="4.26871" fill="#817E9F"/>
<circle cx="302.165" cy="181.18" r="4.26871" fill="#817E9F"/>
<circle cx="316.394" cy="181.18" r="4.26871" fill="#817E9F"/>
<circle cx="330.626" cy="181.18" r="4.26871" fill="#817E9F"/>
<circle cx="344.853" cy="181.18" r="4.26871" fill="#817E9F"/>
<circle cx="359.081" cy="181.18" r="4.26871" fill="#817E9F"/>
<circle cx="373.31" cy="181.18" r="4.26871" fill="#817E9F"/>
<circle cx="387.538" cy="181.18" r="4.26871" fill="#817E9F"/>
<circle cx="60.2687" cy="196.832" r="4.26871" fill="#817E9F"/>
<circle cx="74.5011" cy="196.832" r="4.26871" fill="#817E9F"/>
<circle cx="88.7297" cy="196.832" r="4.26871" fill="#817E9F"/>
<circle cx="102.956" cy="196.832" r="4.26871" fill="#817E9F"/>
<circle cx="117.187" cy="228.136" r="4.26871" fill="#817E9F"/>
<circle cx="131.419" cy="228.136" r="4.26871" fill="#817E9F"/>
<circle cx="145.646" cy="228.136" r="4.26871" fill="#817E9F"/>
<circle cx="159.876" cy="228.136" r="4.26871" fill="#817E9F"/>
<circle cx="174.101" cy="196.832" r="4.26871" fill="#817E9F"/>
<circle cx="188.331" cy="196.832" r="4.26871" fill="#817E9F"/>
<circle cx="202.564" cy="196.832" r="4.26871" fill="#817E9F"/>
<circle cx="216.79" cy="196.832" r="4.26871" fill="#817E9F"/>
<circle cx="231.019" cy="196.832" r="4.26871" fill="#817E9F"/>
<circle cx="245.247" cy="196.832" r="4.26871" fill="#817E9F"/>
<circle cx="259.474" cy="196.832" r="4.26871" fill="#817E9F"/>
<circle cx="273.708" cy="196.832" r="4.26871" fill="#817E9F"/>
<circle cx="287.935" cy="196.832" r="4.26871" fill="#817E9F"/>
<circle cx="302.165" cy="196.832" r="4.26871" fill="#817E9F"/>
<circle cx="316.394" cy="196.832" r="4.26871" fill="#817E9F"/>
<circle cx="330.626" cy="196.832" r="4.26871" fill="#817E9F"/>
<circle cx="344.853" cy="196.832" r="4.26871" fill="#817E9F"/>
<circle cx="359.081" cy="196.832" r="4.26871" fill="#817E9F"/>
<circle cx="373.31" cy="196.832" r="4.26871" fill="#817E9F"/>
<circle cx="387.538" cy="196.832" r="4.26871" fill="#817E9F"/>
<circle cx="117.187" cy="243.788" r="4.26871" fill="#817E9F"/>
<circle cx="131.419" cy="243.788" r="4.26871" fill="#817E9F"/>
<circle cx="145.646" cy="243.788" r="4.26871" fill="#817E9F"/>
<circle cx="159.876" cy="243.788" r="4.26871" fill="#817E9F"/>
<circle cx="60.2687" cy="212.484" r="4.26871" fill="#817E9F"/>
<circle cx="74.5011" cy="212.484" r="4.26871" fill="#817E9F"/>
<circle cx="88.7297" cy="212.484" r="4.26871" fill="#817E9F"/>
<circle cx="102.956" cy="212.484" r="4.26871" fill="#817E9F"/>
<circle cx="174.101" cy="212.484" r="4.26871" fill="#817E9F"/>
<circle cx="188.331" cy="212.484" r="4.26871" fill="#817E9F"/>
<circle cx="202.564" cy="212.484" r="4.26871" fill="#817E9F"/>
<circle cx="216.79" cy="212.484" r="4.26871" fill="#817E9F"/>
<circle cx="231.019" cy="212.484" r="4.26871" fill="#817E9F"/>
<circle cx="245.247" cy="212.484" r="4.26871" fill="#817E9F"/>
<circle cx="259.474" cy="212.484" r="4.26871" fill="#817E9F"/>
<circle cx="273.708" cy="212.484" r="4.26871" fill="#817E9F"/>
<circle cx="287.935" cy="212.484" r="4.26871" fill="#817E9F"/>
<circle cx="302.165" cy="212.484" r="4.26871" fill="#817E9F"/>
<circle cx="316.394" cy="212.484" r="4.26871" fill="#817E9F"/>
<circle cx="330.626" cy="212.484" r="4.26871" fill="#817E9F"/>
<circle cx="117.187" cy="259.44" r="4.26871" fill="#817E9F"/>
<circle cx="131.419" cy="259.44" r="4.26871" fill="#817E9F"/>
<circle cx="145.646" cy="259.44" r="4.26871" fill="#817E9F"/>
<circle cx="159.876" cy="259.44" r="4.26871" fill="#817E9F"/>
<circle cx="344.853" cy="212.484" r="4.26871" fill="#817E9F"/>
<circle cx="359.081" cy="212.484" r="4.26871" fill="#817E9F"/>
<circle cx="373.31" cy="212.484" r="4.26871" fill="#817E9F"/>
<circle cx="387.538" cy="212.484" r="4.26871" fill="#817E9F"/>
<circle cx="60.2687" cy="228.136" r="4.26871" fill="#817E9F"/>
<circle cx="74.5011" cy="228.136" r="4.26871" fill="#817E9F"/>
<circle cx="88.7297" cy="228.136" r="4.26871" fill="#817E9F"/>
<circle cx="102.956" cy="228.136" r="4.26871" fill="#817E9F"/>
<circle cx="174.101" cy="228.136" r="4.26871" fill="#817E9F"/>
<circle cx="188.331" cy="228.136" r="4.26871" fill="#817E9F"/>
<circle cx="202.564" cy="228.136" r="4.26871" fill="#817E9F"/>
<circle cx="216.79" cy="228.136" r="4.26871" fill="#817E9F"/>
<circle cx="231.019" cy="228.136" r="4.26871" fill="#817E9F"/>
<circle cx="245.247" cy="228.136" r="4.26871" fill="#817E9F"/>
<circle cx="259.474" cy="228.136" r="4.26871" fill="#817E9F"/>
<circle cx="273.708" cy="228.136" r="4.26871" fill="#817E9F"/>
<circle cx="117.187" cy="275.092" r="4.26871" fill="#817E9F"/>
<circle cx="131.419" cy="275.092" r="4.26871" fill="#817E9F"/>
<circle cx="145.646" cy="275.092" r="4.26871" fill="#817E9F"/>
<circle cx="159.876" cy="275.092" r="4.26871" fill="#817E9F"/>
<circle cx="287.935" cy="228.136" r="4.26871" fill="#817E9F"/>
<circle cx="302.165" cy="228.136" r="4.26871" fill="#817E9F"/>
<circle cx="316.394" cy="228.136" r="4.26871" fill="#817E9F"/>
<circle cx="330.626" cy="228.136" r="4.26871" fill="#817E9F"/>
<circle cx="344.853" cy="228.136" r="4.26871" fill="#817E9F"/>
<circle cx="359.081" cy="228.136" r="4.26871" fill="#817E9F"/>
<circle cx="373.31" cy="228.136" r="4.26871" fill="#817E9F"/>
<circle cx="387.538" cy="228.136" r="4.26871" fill="#817E9F"/>
<circle cx="60.2687" cy="243.788" r="4.26871" fill="#817E9F"/>
<circle cx="74.5011" cy="243.788" r="4.26871" fill="#817E9F"/>
<circle cx="88.7297" cy="243.788" r="4.26871" fill="#817E9F"/>
<circle cx="102.956" cy="243.788" r="4.26871" fill="#817E9F"/>
<circle cx="174.101" cy="243.788" r="4.26871" fill="#817E9F"/>
<circle cx="188.331" cy="243.788" r="4.26871" fill="#817E9F"/>
<circle cx="202.564" cy="243.788" r="4.26871" fill="#817E9F"/>
<circle cx="216.79" cy="243.788" r="4.26871" fill="#817E9F"/>
<circle cx="117.187" cy="290.744" r="4.26871" fill="#817E9F"/>
<circle cx="131.419" cy="290.744" r="4.26871" fill="#817E9F"/>
<circle cx="145.646" cy="290.744" r="4.26871" fill="#817E9F"/>
<circle cx="159.876" cy="290.744" r="4.26871" fill="#817E9F"/>
<circle cx="231.019" cy="243.788" r="4.26871" fill="#817E9F"/>
<circle cx="245.247" cy="243.788" r="4.26871" fill="#817E9F"/>
<circle cx="259.474" cy="243.788" r="4.26871" fill="#817E9F"/>
<circle cx="273.708" cy="243.788" r="4.26871" fill="#817E9F"/>
<circle cx="287.935" cy="243.788" r="4.26871" fill="#817E9F"/>
<circle cx="302.165" cy="243.788" r="4.26871" fill="#817E9F"/>
<circle cx="316.394" cy="243.788" r="4.26871" fill="#817E9F"/>
<circle cx="330.626" cy="243.788" r="4.26871" fill="#817E9F"/>
<circle cx="344.853" cy="243.788" r="4.26871" fill="#817E9F"/>
<circle cx="359.081" cy="243.788" r="4.26871" fill="#817E9F"/>
<circle cx="373.31" cy="243.788" r="4.26871" fill="#817E9F"/>
<circle cx="387.538" cy="243.788" r="4.26871" fill="#817E9F"/>
<circle cx="60.2687" cy="259.44" r="4.26871" fill="#817E9F"/>
<circle cx="74.5011" cy="259.44" r="4.26871" fill="#817E9F"/>
<circle cx="88.7297" cy="259.44" r="4.26871" fill="#817E9F"/>
<circle cx="102.956" cy="259.44" r="4.26871" fill="#817E9F"/>
<circle cx="117.187" cy="306.396" r="4.26871" fill="#817E9F"/>
<circle cx="131.419" cy="306.396" r="4.26871" fill="#817E9F"/>
<circle cx="145.646" cy="306.396" r="4.26871" fill="#817E9F"/>
<circle cx="159.876" cy="306.396" r="4.26871" fill="#817E9F"/>
<circle cx="174.101" cy="259.44" r="4.26871" fill="#817E9F"/>
<circle cx="188.331" cy="259.44" r="4.26871" fill="#817E9F"/>
<circle cx="202.564" cy="259.44" r="4.26871" fill="#817E9F"/>
<circle cx="216.79" cy="259.44" r="4.26871" fill="#817E9F"/>
<circle cx="231.019" cy="259.44" r="4.26871" fill="#817E9F"/>
<circle cx="245.247" cy="259.44" r="4.26871" fill="#817E9F"/>
<circle cx="259.474" cy="259.44" r="4.26871" fill="#817E9F"/>
<circle cx="273.708" cy="259.44" r="4.26871" fill="#817E9F"/>
<circle cx="287.935" cy="259.44" r="4.26871" fill="#817E9F"/>
<circle cx="302.165" cy="259.44" r="4.26871" fill="#817E9F"/>
<circle cx="316.394" cy="259.44" r="4.26871" fill="#817E9F"/>
<circle cx="330.626" cy="259.44" r="4.26871" fill="#817E9F"/>
<circle cx="344.853" cy="259.44" r="4.26871" fill="#817E9F"/>
<circle cx="359.081" cy="259.44" r="4.26871" fill="#817E9F"/>
<circle cx="373.31" cy="259.44" r="4.26871" fill="#817E9F"/>
<circle cx="387.538" cy="259.44" r="4.26871" fill="#817E9F"/>
<circle cx="117.187" cy="322.048" r="4.26871" fill="#817E9F"/>
<circle cx="131.419" cy="322.048" r="4.26871" fill="#817E9F"/>
<circle cx="145.646" cy="322.048" r="4.26871" fill="#817E9F"/>
<circle cx="159.876" cy="322.048" r="4.26871" fill="#817E9F"/>
<circle cx="60.2687" cy="275.092" r="4.26871" fill="#817E9F"/>
<circle cx="74.5011" cy="275.092" r="4.26871" fill="#817E9F"/>
<circle cx="88.7297" cy="275.092" r="4.26871" fill="#817E9F"/>
<circle cx="102.956" cy="275.092" r="4.26871" fill="#817E9F"/>
<circle cx="174.101" cy="275.092" r="4.26871" fill="#817E9F"/>
<circle cx="188.331" cy="275.092" r="4.26871" fill="#817E9F"/>
<circle cx="202.564" cy="275.092" r="4.26871" fill="#817E9F"/>
<circle cx="216.79" cy="275.092" r="4.26871" fill="#817E9F"/>
<circle cx="231.019" cy="275.092" r="4.26871" fill="#817E9F"/>
<circle cx="245.247" cy="275.092" r="4.26871" fill="#817E9F"/>
<circle cx="259.474" cy="275.092" r="4.26871" fill="#817E9F"/>
<circle cx="273.708" cy="275.092" r="4.26871" fill="#817E9F"/>
<circle cx="287.935" cy="275.092" r="4.26871" fill="#817E9F"/>
<circle cx="302.165" cy="275.092" r="4.26871" fill="#817E9F"/>
<circle cx="316.394" cy="275.092" r="4.26871" fill="#817E9F"/>
<circle cx="330.626" cy="275.092" r="4.26871" fill="#817E9F"/>
<circle cx="117.187" cy="337.7" r="4.26871" fill="#817E9F"/>
<circle cx="131.419" cy="337.7" r="4.26871" fill="#817E9F"/>
<circle cx="145.646" cy="337.7" r="4.26871" fill="#817E9F"/>
<circle cx="159.876" cy="337.7" r="4.26871" fill="#817E9F"/>
<circle cx="344.853" cy="275.092" r="4.26871" fill="#817E9F"/>
<circle cx="359.081" cy="275.092" r="4.26871" fill="#817E9F"/>
<circle cx="373.31" cy="275.092" r="4.26871" fill="#817E9F"/>
<circle cx="387.538" cy="275.092" r="4.26871" fill="#817E9F"/>
<circle cx="60.2687" cy="290.744" r="4.26871" fill="#817E9F"/>
<circle cx="74.5011" cy="290.744" r="4.26871" fill="#817E9F"/>
<circle cx="88.7297" cy="290.744" r="4.26871" fill="#817E9F"/>
<circle cx="102.956" cy="290.744" r="4.26871" fill="#817E9F"/>
<circle cx="174.101" cy="290.744" r="4.26871" fill="#817E9F"/>
<circle cx="188.331" cy="290.744" r="4.26871" fill="#817E9F"/>
<circle cx="202.564" cy="290.744" r="4.26871" fill="#817E9F"/>
<circle cx="216.79" cy="290.744" r="4.26871" fill="#817E9F"/>
<circle cx="231.019" cy="290.744" r="4.26871" fill="#817E9F"/>
<circle cx="245.247" cy="290.744" r="4.26871" fill="#817E9F"/>
<circle cx="259.474" cy="290.744" r="4.26871" fill="#817E9F"/>
<circle cx="273.708" cy="290.744" r="4.26871" fill="#817E9F"/>
<circle cx="117.187" cy="353.352" r="4.26871" fill="#817E9F"/>
<circle cx="131.419" cy="353.352" r="4.26871" fill="#817E9F"/>
<circle cx="145.646" cy="353.352" r="4.26871" fill="#817E9F"/>
<circle cx="159.876" cy="353.352" r="4.26871" fill="#817E9F"/>
<circle cx="287.935" cy="290.744" r="4.26871" fill="#817E9F"/>
<circle cx="302.165" cy="290.744" r="4.26871" fill="#817E9F"/>
<circle cx="316.394" cy="290.744" r="4.26871" fill="#817E9F"/>
<circle cx="330.626" cy="290.744" r="4.26871" fill="#817E9F"/>
<circle cx="344.853" cy="290.744" r="4.26871" fill="#817E9F"/>
<circle cx="359.081" cy="290.744" r="4.26871" fill="#817E9F"/>
<circle cx="373.31" cy="290.744" r="4.26871" fill="#817E9F"/>
<circle cx="387.538" cy="290.744" r="4.26871" fill="#817E9F"/>
<circle cx="60.2687" cy="306.396" r="4.26871" fill="#817E9F"/>
<circle cx="74.5011" cy="306.396" r="4.26871" fill="#817E9F"/>
<circle cx="88.7297" cy="306.396" r="4.26871" fill="#817E9F"/>
<circle cx="102.956" cy="306.396" r="4.26871" fill="#817E9F"/>
<circle cx="174.101" cy="306.396" r="4.26871" fill="#817E9F"/>
<circle cx="188.331" cy="306.396" r="4.26871" fill="#817E9F"/>
<circle cx="202.564" cy="306.396" r="4.26871" fill="#817E9F"/>
<circle cx="216.79" cy="306.396" r="4.26871" fill="#817E9F"/>
<circle cx="117.187" cy="369.004" r="4.26871" fill="#817E9F"/>
<circle cx="131.419" cy="369.004" r="4.26871" fill="#817E9F"/>
<circle cx="145.646" cy="369.004" r="4.26871" fill="#817E9F"/>
<circle cx="159.876" cy="369.004" r="4.26871" fill="#817E9F"/>
<circle cx="231.019" cy="306.396" r="4.26871" fill="#817E9F"/>
<circle cx="245.247" cy="306.396" r="4.26871" fill="#817E9F"/>
<circle cx="259.474" cy="306.396" r="4.26871" fill="#817E9F"/>
<circle cx="273.708" cy="306.396" r="4.26871" fill="#817E9F"/>
<circle cx="287.935" cy="306.396" r="4.26871" fill="#817E9F"/>
<circle cx="302.165" cy="306.396" r="4.26871" fill="#817E9F"/>
<circle cx="316.394" cy="306.396" r="4.26871" fill="#817E9F"/>
<circle cx="330.626" cy="306.396" r="4.26871" fill="#817E9F"/>
<circle cx="344.853" cy="306.396" r="4.26871" fill="#817E9F"/>
<circle cx="359.081" cy="306.396" r="4.26871" fill="#817E9F"/>
<circle cx="373.31" cy="306.396" r="4.26871" fill="#817E9F"/>
<circle cx="387.538" cy="306.396" r="4.26871" fill="#817E9F"/>
<circle cx="60.2687" cy="322.048" r="4.26871" fill="#817E9F"/>
<circle cx="74.5011" cy="322.048" r="4.26871" fill="#817E9F"/>
<circle cx="88.7297" cy="322.048" r="4.26871" fill="#817E9F"/>
<circle cx="102.956" cy="322.048" r="4.26871" fill="#817E9F"/>
<circle cx="117.187" cy="384.656" r="4.26871" fill="#817E9F"/>
<circle cx="131.419" cy="384.656" r="4.26871" fill="#817E9F"/>
<circle cx="145.646" cy="384.656" r="4.26871" fill="#817E9F"/>
<circle cx="159.876" cy="384.656" r="4.26871" fill="#817E9F"/>
<circle cx="174.101" cy="322.048" r="4.26871" fill="#817E9F"/>
<circle cx="188.331" cy="322.048" r="4.26871" fill="#817E9F"/>
<circle cx="202.564" cy="322.048" r="4.26871" fill="#817E9F"/>
<circle cx="216.79" cy="322.048" r="4.26871" fill="#817E9F"/>
<circle cx="231.019" cy="322.048" r="4.26871" fill="#817E9F"/>
<circle cx="245.247" cy="322.048" r="4.26871" fill="#817E9F"/>
<circle cx="259.474" cy="322.048" r="4.26871" fill="#817E9F"/>
<circle cx="273.708" cy="322.048" r="4.26871" fill="#817E9F"/>
<circle cx="287.935" cy="322.048" r="4.26871" fill="#817E9F"/>
<circle cx="302.165" cy="322.048" r="4.26871" fill="#817E9F"/>
<circle cx="316.394" cy="322.048" r="4.26871" fill="#817E9F"/>
<circle cx="330.626" cy="322.048" r="4.26871" fill="#817E9F"/>
<circle cx="344.853" cy="322.048" r="4.26871" fill="#817E9F"/>
<circle cx="359.081" cy="322.048" r="4.26871" fill="#817E9F"/>
<circle cx="373.31" cy="322.048" r="4.26871" fill="#817E9F"/>
<circle cx="387.538" cy="322.048" r="4.26871" fill="#817E9F"/>
<circle cx="60.2687" cy="337.7" r="4.26871" fill="#817E9F"/>
<circle cx="74.5011" cy="337.7" r="4.26871" fill="#817E9F"/>
<circle cx="88.7297" cy="337.7" r="4.26871" fill="#817E9F"/>
<circle cx="102.956" cy="337.7" r="4.26871" fill="#817E9F"/>
<circle cx="174.101" cy="337.7" r="4.26871" fill="#817E9F"/>
<circle cx="188.331" cy="337.7" r="4.26871" fill="#817E9F"/>
<circle cx="202.564" cy="337.7" r="4.26871" fill="#817E9F"/>
<circle cx="216.79" cy="337.7" r="4.26871" fill="#817E9F"/>
<circle cx="231.019" cy="337.7" r="4.26871" fill="#817E9F"/>
<circle cx="245.247" cy="337.7" r="4.26871" fill="#817E9F"/>
<circle cx="259.474" cy="337.7" r="4.26871" fill="#817E9F"/>
<circle cx="273.708" cy="337.7" r="4.26871" fill="#817E9F"/>
<circle cx="287.935" cy="337.7" r="4.26871" fill="#817E9F"/>
<circle cx="302.165" cy="337.7" r="4.26871" fill="#817E9F"/>
<circle cx="316.394" cy="337.7" r="4.26871" fill="#817E9F"/>
<circle cx="330.626" cy="337.7" r="4.26871" fill="#817E9F"/>
<circle cx="344.853" cy="337.7" r="4.26871" fill="#817E9F"/>
<circle cx="359.081" cy="337.7" r="4.26871" fill="#817E9F"/>
<circle cx="373.31" cy="337.7" r="4.26871" fill="#817E9F"/>
<circle cx="387.538" cy="337.7" r="4.26871" fill="#817E9F"/>
<circle cx="60.2687" cy="353.352" r="4.26871" fill="#817E9F"/>
<circle cx="74.5011" cy="353.352" r="4.26871" fill="#817E9F"/>
<circle cx="88.7297" cy="353.352" r="4.26871" fill="#817E9F"/>
<circle cx="102.956" cy="353.352" r="4.26871" fill="#817E9F"/>
<circle cx="174.101" cy="353.352" r="4.26871" fill="#817E9F"/>
<circle cx="188.331" cy="353.352" r="4.26871" fill="#817E9F"/>
<circle cx="202.564" cy="353.352" r="4.26871" fill="#817E9F"/>
<circle cx="216.79" cy="353.352" r="4.26871" fill="#817E9F"/>
<circle cx="231.019" cy="353.352" r="4.26871" fill="#817E9F"/>
<circle cx="245.247" cy="353.352" r="4.26871" fill="#817E9F"/>
<circle cx="259.474" cy="353.352" r="4.26871" fill="#817E9F"/>
<circle cx="273.708" cy="353.352" r="4.26871" fill="#817E9F"/>
<circle cx="287.935" cy="353.352" r="4.26871" fill="#817E9F"/>
<circle cx="302.165" cy="353.352" r="4.26871" fill="#817E9F"/>
<circle cx="316.394" cy="353.352" r="4.26871" fill="#817E9F"/>
<circle cx="330.626" cy="353.352" r="4.26871" fill="#817E9F"/>
<circle cx="344.853" cy="353.352" r="4.26871" fill="#817E9F"/>
<circle cx="359.081" cy="353.352" r="4.26871" fill="#817E9F"/>
<circle cx="373.31" cy="353.352" r="4.26871" fill="#817E9F"/>
<circle cx="387.538" cy="353.352" r="4.26871" fill="#817E9F"/>
<circle cx="60.2687" cy="369.004" r="4.26871" fill="#817E9F"/>
<circle cx="74.5011" cy="369.004" r="4.26871" fill="#817E9F"/>
<circle cx="88.7297" cy="369.004" r="4.26871" fill="#817E9F"/>
<circle cx="102.956" cy="369.004" r="4.26871" fill="#817E9F"/>
<circle cx="174.101" cy="369.004" r="4.26871" fill="#817E9F"/>
<circle cx="188.331" cy="369.004" r="4.26871" fill="#817E9F"/>
<circle cx="202.564" cy="369.004" r="4.26871" fill="#817E9F"/>
<circle cx="216.79" cy="369.004" r="4.26871" fill="#817E9F"/>
<circle cx="231.019" cy="369.004" r="4.26871" fill="#817E9F"/>
<circle cx="245.247" cy="369.004" r="4.26871" fill="#817E9F"/>
<circle cx="259.474" cy="369.004" r="4.26871" fill="#817E9F"/>
<circle cx="273.708" cy="369.004" r="4.26871" fill="#817E9F"/>
<circle cx="287.935" cy="369.004" r="4.26871" fill="#817E9F"/>
<circle cx="302.165" cy="369.004" r="4.26871" fill="#817E9F"/>
<circle cx="316.394" cy="369.004" r="4.26871" fill="#817E9F"/>
<circle cx="330.626" cy="369.004" r="4.26871" fill="#817E9F"/>
<circle cx="344.853" cy="369.004" r="4.26871" fill="#817E9F"/>
<circle cx="359.081" cy="369.004" r="4.26871" fill="#817E9F"/>
<circle cx="373.31" cy="369.004" r="4.26871" fill="#817E9F"/>
<circle cx="387.538" cy="369.004" r="4.26871" fill="#817E9F"/>
<circle cx="60.2687" cy="384.656" r="4.26871" fill="#817E9F"/>
<circle cx="74.5011" cy="384.656" r="4.26871" fill="#817E9F"/>
<circle cx="88.7297" cy="384.656" r="4.26871" fill="#817E9F"/>
<circle cx="102.956" cy="384.656" r="4.26871" fill="#817E9F"/>
<circle cx="174.101" cy="384.656" r="4.26871" fill="#817E9F"/>
<circle cx="188.331" cy="384.656" r="4.26871" fill="#817E9F"/>
<circle cx="202.564" cy="384.656" r="4.26871" fill="#817E9F"/>
<circle cx="216.79" cy="384.656" r="4.26871" fill="#817E9F"/>
<circle cx="231.019" cy="384.656" r="4.26871" fill="#817E9F"/>
<circle cx="245.247" cy="384.656" r="4.26871" fill="#817E9F"/>
<circle cx="259.474" cy="384.656" r="4.26871" fill="#817E9F"/>
<circle cx="273.708" cy="384.656" r="4.26871" fill="#817E9F"/>
<circle cx="287.935" cy="384.656" r="4.26871" fill="#817E9F"/>
<circle cx="302.165" cy="384.656" r="4.26871" fill="#817E9F"/>
<circle cx="316.394" cy="384.656" r="4.26871" fill="#817E9F"/>
<circle cx="330.626" cy="384.656" r="4.26871" fill="#817E9F"/>
<circle cx="344.853" cy="384.656" r="4.26871" fill="#817E9F"/>
<circle cx="359.081" cy="384.656" r="4.26871" fill="#817E9F"/>
<circle cx="373.31" cy="384.656" r="4.26871" fill="#817E9F"/>
<circle cx="387.538" cy="384.656" r="4.26871" fill="#817E9F"/>
</mask>
<g mask="url(#mask0)">
<path d="M320.662 380.913V110.035H72.2195L320.662 380.913Z" fill="#817E9F"/>
</g>
</g>
</svg>
