<svg width="24" height="24" viewBox="0 0 24 24" fill="none" xmlns="http://www.w3.org/2000/svg">
<path d="M11.9999 0.0332031C5.39149 0.0332031 0.0332031 5.39149 0.0332031 11.9999C0.0332031 18.6082 5.39149 23.9665 11.9999 23.9665C18.6082 23.9665 23.9665 18.6082 23.9665 11.9999C23.9665 5.39149 18.6082 0.0332031 11.9999 0.0332031ZM17.7508 9.05361C17.7588 9.17916 17.7588 9.31004 17.7588 9.43826C17.7588 13.3595 14.7725 17.8764 9.31538 17.8764C7.63257 17.8764 6.07263 17.3875 4.75843 16.5461C4.99884 16.5728 5.22855 16.5835 5.4743 16.5835C6.86329 16.5835 8.14009 16.1134 9.15779 15.3174C7.85428 15.2907 6.75911 14.4359 6.38515 13.2606C6.84192 13.3274 7.25327 13.3274 7.72339 13.2072C7.0522 13.0709 6.44893 12.7063 6.01605 12.1756C5.58317 11.6448 5.34738 10.9806 5.34875 10.2957V10.2583C5.74141 10.48 6.20352 10.6162 6.68699 10.6349C6.28056 10.3641 5.94724 9.99708 5.7166 9.56655C5.48596 9.13602 5.36511 8.65522 5.36478 8.1668C5.36478 7.61387 5.50902 7.10903 5.76812 6.67096C6.51311 7.58806 7.44274 8.33813 8.49659 8.87242C9.55044 9.40671 10.7049 9.71326 11.885 9.77215C11.4656 7.75544 12.9722 6.12338 14.7832 6.12338C15.638 6.12338 16.4072 6.48131 16.9495 7.05828C17.6199 6.93273 18.261 6.68165 18.8326 6.34509C18.6109 7.03157 18.1461 7.6112 17.5291 7.97715C18.1274 7.91304 18.7044 7.74743 19.2386 7.51504C18.8353 8.10803 18.3305 8.63425 17.7508 9.05361V9.05361Z" fill="#490048"/>
</svg>
