<svg width="30" height="30" viewBox="0 0 30 30" fill="none" xmlns="http://www.w3.org/2000/svg">
<path d="M28.7947 0.00830078H1.20914C0.545735 0.00830078 0.00976562 0.54427 0.00976562 1.20767V28.7932C0.00976562 29.4566 0.545735 29.9926 1.20914 29.9926H28.7947C29.4581 29.9926 29.9941 29.4566 29.9941 28.7932V1.20767C29.9941 0.54427 29.4581 0.00830078 28.7947 0.00830078ZM23.0714 10.8664C23.0827 11.0425 23.0827 11.2262 23.0827 11.4061C23.0827 16.9082 18.8924 23.2461 11.2351 23.2461C8.87387 23.2461 6.68502 22.5602 4.84098 21.3796C5.17831 21.4171 5.50064 21.4321 5.84546 21.4321C7.79444 21.4321 9.586 20.7724 11.014 19.6555C9.18496 19.618 7.64826 18.4187 7.12354 16.7695C7.76445 16.8632 8.34165 16.8632 9.0013 16.6946C8.05952 16.5032 7.21302 15.9917 6.60562 15.247C5.99822 14.5023 5.66738 13.5702 5.6693 12.6092V12.5567C6.22026 12.8678 6.86867 13.059 7.54707 13.0852C6.97677 12.7051 6.50908 12.1902 6.18545 11.5861C5.86182 10.982 5.69225 10.3073 5.69179 9.62201C5.69179 8.84617 5.89418 8.13779 6.25774 7.52311C7.30308 8.80995 8.6075 9.86242 10.0862 10.6121C11.565 11.3618 13.1849 11.792 14.8407 11.8746C14.2523 9.04482 16.3662 6.75477 18.9074 6.75477C20.1067 6.75477 21.1862 7.257 21.947 8.06658C22.8878 7.89042 23.7873 7.5381 24.5894 7.06585C24.2783 8.0291 23.6261 8.84242 22.7603 9.3559C23.5999 9.26595 24.4095 9.03357 25.1591 8.70749C24.5931 9.53956 23.8848 10.2779 23.0714 10.8664Z" fill="white"/>
</svg>
