<svg width="20" height="14" viewBox="0 0 20 14" fill="none" xmlns="http://www.w3.org/2000/svg">
<path d="M16.2353 5.83333C16.3529 5.48333 16.4706 5.13333 16.4706 4.66667C16.4706 2.1 14.3529 0 11.7647 0C10 0 8.35294 1.05 7.64706 2.56667C7.29412 2.45 6.82353 2.33333 6.47059 2.33333C4.82353 2.33333 3.52941 3.61667 3.52941 5.25C3.52941 5.48333 3.52941 5.71667 3.64706 5.83333C1.52941 6.18333 0 7.81667 0 9.91667C0 12.1333 1.88235 14 4.11765 14H8.23529V10.5H4.70588L10 5.25L15.2941 10.5H11.7647V14H15.8824C18.1176 14 20 12.1333 20 9.91667C20 7.81667 18.3529 6.06667 16.2353 5.83333Z" fill="white"/>
</svg>
